  0
SECTION
  2
BLOCKS
  0
ENDSEC
  0
SECTION
  2
ENTITIES
  0
LINE
  8
0
 10
260.502
 20
128.5
 11
0
 21
128.5
  0
LINE
  8
0
 10
0
 20
128.5
 11
0
 21
0
  0
LINE
  8
0
 10
0
 20
0
 11
260.502
 21
0
  0
LINE
  8
0
 10
260.502
 20
0
 11
260.502
 21
128.5
  0
LINE
  8
0
 10
251.202
 20
123.8
 11
251.035
 21
123.809
  0
LINE
  8
0
 10
251.035
 20
123.809
 11
250.87
 21
123.835
  0
LINE
  8
0
 10
250.87
 20
123.835
 11
250.708
 21
123.878
  0
LINE
  8
0
 10
250.708
 20
123.878
 11
250.552
 21
123.938
  0
LINE
  8
0
 10
250.552
 20
123.938
 11
250.402
 21
124.014
  0
LINE
  8
0
 10
250.402
 20
124.014
 11
250.262
 21
124.106
  0
LINE
  8
0
 10
250.262
 20
124.106
 11
250.132
 21
124.211
  0
LINE
  8
0
 10
250.132
 20
124.211
 11
250.013
 21
124.329
  0
LINE
  8
0
 10
250.013
 20
124.329
 11
249.908
 21
124.46
  0
LINE
  8
0
 10
249.908
 20
124.46
 11
249.817
 21
124.6
  0
LINE
  8
0
 10
249.817
 20
124.6
 11
249.741
 21
124.749
  0
LINE
  8
0
 10
249.741
 20
124.749
 11
249.681
 21
124.906
  0
LINE
  8
0
 10
249.681
 20
124.906
 11
249.637
 21
125.067
  0
LINE
  8
0
 10
249.637
 20
125.067
 11
249.611
 21
125.233
  0
LINE
  8
0
 10
249.611
 20
125.233
 11
249.602
 21
125.4
  0
LINE
  8
0
 10
249.602
 20
125.4
 11
249.611
 21
125.567
  0
LINE
  8
0
 10
249.611
 20
125.567
 11
249.637
 21
125.733
  0
LINE
  8
0
 10
249.637
 20
125.733
 11
249.681
 21
125.894
  0
LINE
  8
0
 10
249.681
 20
125.894
 11
249.741
 21
126.051
  0
LINE
  8
0
 10
249.741
 20
126.051
 11
249.817
 21
126.2
  0
LINE
  8
0
 10
249.817
 20
126.2
 11
249.908
 21
126.34
  0
LINE
  8
0
 10
249.908
 20
126.34
 11
250.013
 21
126.471
  0
LINE
  8
0
 10
250.013
 20
126.471
 11
250.132
 21
126.589
  0
LINE
  8
0
 10
250.132
 20
126.589
 11
250.262
 21
126.694
  0
LINE
  8
0
 10
250.262
 20
126.694
 11
250.402
 21
126.786
  0
LINE
  8
0
 10
250.402
 20
126.786
 11
250.552
 21
126.862
  0
LINE
  8
0
 10
250.552
 20
126.862
 11
250.708
 21
126.922
  0
LINE
  8
0
 10
250.708
 20
126.922
 11
250.87
 21
126.965
  0
LINE
  8
0
 10
250.87
 20
126.965
 11
251.035
 21
126.991
  0
LINE
  8
0
 10
251.035
 20
126.991
 11
251.202
 21
127
  0
LINE
  8
0
 10
251.202
 20
127
 11
257.402
 21
127
  0
LINE
  8
0
 10
257.402
 20
127
 11
257.57
 21
126.991
  0
LINE
  8
0
 10
257.57
 20
126.991
 11
257.735
 21
126.965
  0
LINE
  8
0
 10
257.735
 20
126.965
 11
257.897
 21
126.922
  0
LINE
  8
0
 10
257.897
 20
126.922
 11
258.053
 21
126.862
  0
LINE
  8
0
 10
258.053
 20
126.862
 11
258.202
 21
126.786
  0
LINE
  8
0
 10
258.202
 20
126.786
 11
258.343
 21
126.694
  0
LINE
  8
0
 10
258.343
 20
126.694
 11
258.473
 21
126.589
  0
LINE
  8
0
 10
258.473
 20
126.589
 11
258.591
 21
126.471
  0
LINE
  8
0
 10
258.591
 20
126.471
 11
258.697
 21
126.34
  0
LINE
  8
0
 10
258.697
 20
126.34
 11
258.788
 21
126.2
  0
LINE
  8
0
 10
258.788
 20
126.2
 11
258.864
 21
126.051
  0
LINE
  8
0
 10
258.864
 20
126.051
 11
258.924
 21
125.894
  0
LINE
  8
0
 10
258.924
 20
125.894
 11
258.967
 21
125.733
  0
LINE
  8
0
 10
258.967
 20
125.733
 11
258.994
 21
125.567
  0
LINE
  8
0
 10
258.994
 20
125.567
 11
259.002
 21
125.4
  0
LINE
  8
0
 10
259.002
 20
125.4
 11
258.994
 21
125.233
  0
LINE
  8
0
 10
258.994
 20
125.233
 11
258.967
 21
125.067
  0
LINE
  8
0
 10
258.967
 20
125.067
 11
258.924
 21
124.906
  0
LINE
  8
0
 10
258.924
 20
124.906
 11
258.864
 21
124.749
  0
LINE
  8
0
 10
258.864
 20
124.749
 11
258.788
 21
124.6
  0
LINE
  8
0
 10
258.788
 20
124.6
 11
258.697
 21
124.46
  0
LINE
  8
0
 10
258.697
 20
124.46
 11
258.591
 21
124.329
  0
LINE
  8
0
 10
258.591
 20
124.329
 11
258.473
 21
124.211
  0
LINE
  8
0
 10
258.473
 20
124.211
 11
258.343
 21
124.106
  0
LINE
  8
0
 10
258.343
 20
124.106
 11
258.202
 21
124.014
  0
LINE
  8
0
 10
258.202
 20
124.014
 11
258.053
 21
123.938
  0
LINE
  8
0
 10
258.053
 20
123.938
 11
257.897
 21
123.878
  0
LINE
  8
0
 10
257.897
 20
123.878
 11
257.735
 21
123.835
  0
LINE
  8
0
 10
257.735
 20
123.835
 11
257.57
 21
123.809
  0
LINE
  8
0
 10
257.57
 20
123.809
 11
257.402
 21
123.8
  0
LINE
  8
0
 10
257.402
 20
123.8
 11
251.202
 21
123.8
  0
LINE
  8
0
 10
3.09999
 20
123.8
 11
2.93275
 21
123.809
  0
LINE
  8
0
 10
2.93275
 20
123.809
 11
2.76733
 21
123.835
  0
LINE
  8
0
 10
2.76733
 20
123.835
 11
2.60558
 21
123.878
  0
LINE
  8
0
 10
2.60558
 20
123.878
 11
2.44922
 21
123.938
  0
LINE
  8
0
 10
2.44922
 20
123.938
 11
2.3
 21
124.014
  0
LINE
  8
0
 10
2.3
 20
124.014
 11
2.15955
 21
124.106
  0
LINE
  8
0
 10
2.15955
 20
124.106
 11
2.02939
 21
124.211
  0
LINE
  8
0
 10
2.02939
 20
124.211
 11
1.91096
 21
124.329
  0
LINE
  8
0
 10
1.91096
 20
124.329
 11
1.80557
 21
124.46
  0
LINE
  8
0
 10
1.80557
 20
124.46
 11
1.71436
 21
124.6
  0
LINE
  8
0
 10
1.71436
 20
124.6
 11
1.63832
 21
124.749
  0
LINE
  8
0
 10
1.63832
 20
124.749
 11
1.57831
 21
124.906
  0
LINE
  8
0
 10
1.57831
 20
124.906
 11
1.53496
 21
125.067
  0
LINE
  8
0
 10
1.53496
 20
125.067
 11
1.50876
 21
125.233
  0
LINE
  8
0
 10
1.50876
 20
125.233
 11
1.5
 21
125.4
  0
LINE
  8
0
 10
1.5
 20
125.4
 11
1.50876
 21
125.567
  0
LINE
  8
0
 10
1.50876
 20
125.567
 11
1.53496
 21
125.733
  0
LINE
  8
0
 10
1.53496
 20
125.733
 11
1.57831
 21
125.894
  0
LINE
  8
0
 10
1.57831
 20
125.894
 11
1.63832
 21
126.051
  0
LINE
  8
0
 10
1.63832
 20
126.051
 11
1.71436
 21
126.2
  0
LINE
  8
0
 10
1.71436
 20
126.2
 11
1.80557
 21
126.34
  0
LINE
  8
0
 10
1.80557
 20
126.34
 11
1.91096
 21
126.471
  0
LINE
  8
0
 10
1.91096
 20
126.471
 11
2.02939
 21
126.589
  0
LINE
  8
0
 10
2.02939
 20
126.589
 11
2.15955
 21
126.694
  0
LINE
  8
0
 10
2.15955
 20
126.694
 11
2.3
 21
126.786
  0
LINE
  8
0
 10
2.3
 20
126.786
 11
2.44922
 21
126.862
  0
LINE
  8
0
 10
2.44922
 20
126.862
 11
2.60558
 21
126.922
  0
LINE
  8
0
 10
2.60558
 20
126.922
 11
2.76733
 21
126.965
  0
LINE
  8
0
 10
2.76733
 20
126.965
 11
2.93275
 21
126.991
  0
LINE
  8
0
 10
2.93275
 20
126.991
 11
3.09999
 21
127
  0
LINE
  8
0
 10
3.09999
 20
127
 11
9.3
 21
127
  0
LINE
  8
0
 10
9.3
 20
127
 11
9.46724
 21
126.991
  0
LINE
  8
0
 10
9.46724
 20
126.991
 11
9.63266
 21
126.965
  0
LINE
  8
0
 10
9.63266
 20
126.965
 11
9.79442
 21
126.922
  0
LINE
  8
0
 10
9.79442
 20
126.922
 11
9.95078
 21
126.862
  0
LINE
  8
0
 10
9.95078
 20
126.862
 11
10.1
 21
126.786
  0
LINE
  8
0
 10
10.1
 20
126.786
 11
10.2404
 21
126.694
  0
LINE
  8
0
 10
10.2404
 20
126.694
 11
10.3706
 21
126.589
  0
LINE
  8
0
 10
10.3706
 20
126.589
 11
10.489
 21
126.471
  0
LINE
  8
0
 10
10.489
 20
126.471
 11
10.5944
 21
126.34
  0
LINE
  8
0
 10
10.5944
 20
126.34
 11
10.6856
 21
126.2
  0
LINE
  8
0
 10
10.6856
 20
126.2
 11
10.7617
 21
126.051
  0
LINE
  8
0
 10
10.7617
 20
126.051
 11
10.8217
 21
125.894
  0
LINE
  8
0
 10
10.8217
 20
125.894
 11
10.865
 21
125.733
  0
LINE
  8
0
 10
10.865
 20
125.733
 11
10.8912
 21
125.567
  0
LINE
  8
0
 10
10.8912
 20
125.567
 11
10.9
 21
125.4
  0
LINE
  8
0
 10
10.9
 20
125.4
 11
10.8912
 21
125.233
  0
LINE
  8
0
 10
10.8912
 20
125.233
 11
10.865
 21
125.067
  0
LINE
  8
0
 10
10.865
 20
125.067
 11
10.8217
 21
124.906
  0
LINE
  8
0
 10
10.8217
 20
124.906
 11
10.7617
 21
124.749
  0
LINE
  8
0
 10
10.7617
 20
124.749
 11
10.6856
 21
124.6
  0
LINE
  8
0
 10
10.6856
 20
124.6
 11
10.5944
 21
124.46
  0
LINE
  8
0
 10
10.5944
 20
124.46
 11
10.489
 21
124.329
  0
LINE
  8
0
 10
10.489
 20
124.329
 11
10.3706
 21
124.211
  0
LINE
  8
0
 10
10.3706
 20
124.211
 11
10.2404
 21
124.106
  0
LINE
  8
0
 10
10.2404
 20
124.106
 11
10.1
 21
124.014
  0
LINE
  8
0
 10
10.1
 20
124.014
 11
9.95078
 21
123.938
  0
LINE
  8
0
 10
9.95078
 20
123.938
 11
9.79442
 21
123.878
  0
LINE
  8
0
 10
9.79442
 20
123.878
 11
9.63266
 21
123.835
  0
LINE
  8
0
 10
9.63266
 20
123.835
 11
9.46724
 21
123.809
  0
LINE
  8
0
 10
9.46724
 20
123.809
 11
9.3
 21
123.8
  0
LINE
  8
0
 10
9.3
 20
123.8
 11
3.09999
 21
123.8
  0
LINE
  8
0
 10
50
 20
12.5
 11
50
 21
112.3
  0
LINE
  8
0
 10
50
 20
112.3
 11
210.5
 21
112.3
  0
LINE
  8
0
 10
210.5
 20
112.3
 11
210.5
 21
12.5
  0
LINE
  8
0
 10
210.5
 20
12.5
 11
50
 21
12.5
  0
LINE
  8
0
 10
243.671
 20
100.867
 11
243.345
 21
100.919
  0
LINE
  8
0
 10
243.345
 20
100.919
 11
243.027
 21
101.004
  0
LINE
  8
0
 10
243.027
 20
101.004
 11
242.719
 21
101.122
  0
LINE
  8
0
 10
242.719
 20
101.122
 11
242.425
 21
101.272
  0
LINE
  8
0
 10
242.425
 20
101.272
 11
242.148
 21
101.452
  0
LINE
  8
0
 10
242.148
 20
101.452
 11
241.892
 21
101.659
  0
LINE
  8
0
 10
241.892
 20
101.659
 11
241.659
 21
101.892
  0
LINE
  8
0
 10
241.659
 20
101.892
 11
241.452
 21
102.148
  0
LINE
  8
0
 10
241.452
 20
102.148
 11
241.272
 21
102.425
  0
LINE
  8
0
 10
241.272
 20
102.425
 11
241.122
 21
102.719
  0
LINE
  8
0
 10
241.122
 20
102.719
 11
241.004
 21
103.027
  0
LINE
  8
0
 10
241.004
 20
103.027
 11
240.919
 21
103.345
  0
LINE
  8
0
 10
240.919
 20
103.345
 11
240.867
 21
103.671
  0
LINE
  8
0
 10
240.867
 20
103.671
 11
240.85
 21
104
  0
LINE
  8
0
 10
240.85
 20
104
 11
240.867
 21
104.329
  0
LINE
  8
0
 10
240.867
 20
104.329
 11
240.919
 21
104.655
  0
LINE
  8
0
 10
240.919
 20
104.655
 11
241.004
 21
104.973
  0
LINE
  8
0
 10
241.004
 20
104.973
 11
241.122
 21
105.281
  0
LINE
  8
0
 10
241.122
 20
105.281
 11
241.272
 21
105.575
  0
LINE
  8
0
 10
241.272
 20
105.575
 11
241.452
 21
105.852
  0
LINE
  8
0
 10
241.452
 20
105.852
 11
241.659
 21
106.108
  0
LINE
  8
0
 10
241.659
 20
106.108
 11
241.892
 21
106.341
  0
LINE
  8
0
 10
241.892
 20
106.341
 11
242.148
 21
106.548
  0
LINE
  8
0
 10
242.148
 20
106.548
 11
242.425
 21
106.728
  0
LINE
  8
0
 10
242.425
 20
106.728
 11
242.719
 21
106.878
  0
LINE
  8
0
 10
242.719
 20
106.878
 11
243.027
 21
106.996
  0
LINE
  8
0
 10
243.027
 20
106.996
 11
243.345
 21
107.081
  0
LINE
  8
0
 10
243.345
 20
107.081
 11
243.671
 21
107.133
  0
LINE
  8
0
 10
243.671
 20
107.133
 11
244
 21
107.15
  0
LINE
  8
0
 10
244
 20
107.15
 11
244.329
 21
107.133
  0
LINE
  8
0
 10
244.329
 20
107.133
 11
244.655
 21
107.081
  0
LINE
  8
0
 10
244.655
 20
107.081
 11
244.973
 21
106.996
  0
LINE
  8
0
 10
244.973
 20
106.996
 11
245.281
 21
106.878
  0
LINE
  8
0
 10
245.281
 20
106.878
 11
245.575
 21
106.728
  0
LINE
  8
0
 10
245.575
 20
106.728
 11
245.852
 21
106.548
  0
LINE
  8
0
 10
245.852
 20
106.548
 11
246.108
 21
106.341
  0
LINE
  8
0
 10
246.108
 20
106.341
 11
246.341
 21
106.108
  0
LINE
  8
0
 10
246.341
 20
106.108
 11
246.548
 21
105.852
  0
LINE
  8
0
 10
246.548
 20
105.852
 11
246.728
 21
105.575
  0
LINE
  8
0
 10
246.728
 20
105.575
 11
246.878
 21
105.281
  0
LINE
  8
0
 10
246.878
 20
105.281
 11
246.996
 21
104.973
  0
LINE
  8
0
 10
246.996
 20
104.973
 11
247.081
 21
104.655
  0
LINE
  8
0
 10
247.081
 20
104.655
 11
247.133
 21
104.329
  0
LINE
  8
0
 10
247.133
 20
104.329
 11
247.15
 21
104
  0
LINE
  8
0
 10
247.15
 20
104
 11
247.133
 21
103.671
  0
LINE
  8
0
 10
247.133
 20
103.671
 11
247.081
 21
103.345
  0
LINE
  8
0
 10
247.081
 20
103.345
 11
246.996
 21
103.027
  0
LINE
  8
0
 10
246.996
 20
103.027
 11
246.878
 21
102.719
  0
LINE
  8
0
 10
246.878
 20
102.719
 11
246.728
 21
102.425
  0
LINE
  8
0
 10
246.728
 20
102.425
 11
246.548
 21
102.148
  0
LINE
  8
0
 10
246.548
 20
102.148
 11
246.341
 21
101.892
  0
LINE
  8
0
 10
246.341
 20
101.892
 11
246.108
 21
101.659
  0
LINE
  8
0
 10
246.108
 20
101.659
 11
245.852
 21
101.452
  0
LINE
  8
0
 10
245.852
 20
101.452
 11
245.575
 21
101.272
  0
LINE
  8
0
 10
245.575
 20
101.272
 11
245.281
 21
101.122
  0
LINE
  8
0
 10
245.281
 20
101.122
 11
244.973
 21
101.004
  0
LINE
  8
0
 10
244.973
 20
101.004
 11
244.655
 21
100.919
  0
LINE
  8
0
 10
244.655
 20
100.919
 11
244.329
 21
100.867
  0
LINE
  8
0
 10
244.329
 20
100.867
 11
244
 21
100.85
  0
LINE
  8
0
 10
244
 20
100.85
 11
243.671
 21
100.867
  0
LINE
  8
0
 10
225.671
 20
100.867
 11
225.345
 21
100.919
  0
LINE
  8
0
 10
225.345
 20
100.919
 11
225.027
 21
101.004
  0
LINE
  8
0
 10
225.027
 20
101.004
 11
224.719
 21
101.122
  0
LINE
  8
0
 10
224.719
 20
101.122
 11
224.425
 21
101.272
  0
LINE
  8
0
 10
224.425
 20
101.272
 11
224.148
 21
101.452
  0
LINE
  8
0
 10
224.148
 20
101.452
 11
223.892
 21
101.659
  0
LINE
  8
0
 10
223.892
 20
101.659
 11
223.659
 21
101.892
  0
LINE
  8
0
 10
223.659
 20
101.892
 11
223.452
 21
102.148
  0
LINE
  8
0
 10
223.452
 20
102.148
 11
223.272
 21
102.425
  0
LINE
  8
0
 10
223.272
 20
102.425
 11
223.122
 21
102.719
  0
LINE
  8
0
 10
223.122
 20
102.719
 11
223.004
 21
103.027
  0
LINE
  8
0
 10
223.004
 20
103.027
 11
222.919
 21
103.345
  0
LINE
  8
0
 10
222.919
 20
103.345
 11
222.867
 21
103.671
  0
LINE
  8
0
 10
222.867
 20
103.671
 11
222.85
 21
104
  0
LINE
  8
0
 10
222.85
 20
104
 11
222.867
 21
104.329
  0
LINE
  8
0
 10
222.867
 20
104.329
 11
222.919
 21
104.655
  0
LINE
  8
0
 10
222.919
 20
104.655
 11
223.004
 21
104.973
  0
LINE
  8
0
 10
223.004
 20
104.973
 11
223.122
 21
105.281
  0
LINE
  8
0
 10
223.122
 20
105.281
 11
223.272
 21
105.575
  0
LINE
  8
0
 10
223.272
 20
105.575
 11
223.452
 21
105.852
  0
LINE
  8
0
 10
223.452
 20
105.852
 11
223.659
 21
106.108
  0
LINE
  8
0
 10
223.659
 20
106.108
 11
223.892
 21
106.341
  0
LINE
  8
0
 10
223.892
 20
106.341
 11
224.148
 21
106.548
  0
LINE
  8
0
 10
224.148
 20
106.548
 11
224.425
 21
106.728
  0
LINE
  8
0
 10
224.425
 20
106.728
 11
224.719
 21
106.878
  0
LINE
  8
0
 10
224.719
 20
106.878
 11
225.027
 21
106.996
  0
LINE
  8
0
 10
225.027
 20
106.996
 11
225.345
 21
107.081
  0
LINE
  8
0
 10
225.345
 20
107.081
 11
225.671
 21
107.133
  0
LINE
  8
0
 10
225.671
 20
107.133
 11
226
 21
107.15
  0
LINE
  8
0
 10
226
 20
107.15
 11
226.329
 21
107.133
  0
LINE
  8
0
 10
226.329
 20
107.133
 11
226.655
 21
107.081
  0
LINE
  8
0
 10
226.655
 20
107.081
 11
226.973
 21
106.996
  0
LINE
  8
0
 10
226.973
 20
106.996
 11
227.281
 21
106.878
  0
LINE
  8
0
 10
227.281
 20
106.878
 11
227.575
 21
106.728
  0
LINE
  8
0
 10
227.575
 20
106.728
 11
227.852
 21
106.548
  0
LINE
  8
0
 10
227.852
 20
106.548
 11
228.108
 21
106.341
  0
LINE
  8
0
 10
228.108
 20
106.341
 11
228.341
 21
106.108
  0
LINE
  8
0
 10
228.341
 20
106.108
 11
228.548
 21
105.852
  0
LINE
  8
0
 10
228.548
 20
105.852
 11
228.728
 21
105.575
  0
LINE
  8
0
 10
228.728
 20
105.575
 11
228.878
 21
105.281
  0
LINE
  8
0
 10
228.878
 20
105.281
 11
228.996
 21
104.973
  0
LINE
  8
0
 10
228.996
 20
104.973
 11
229.081
 21
104.655
  0
LINE
  8
0
 10
229.081
 20
104.655
 11
229.133
 21
104.329
  0
LINE
  8
0
 10
229.133
 20
104.329
 11
229.15
 21
104
  0
LINE
  8
0
 10
229.15
 20
104
 11
229.133
 21
103.671
  0
LINE
  8
0
 10
229.133
 20
103.671
 11
229.081
 21
103.345
  0
LINE
  8
0
 10
229.081
 20
103.345
 11
228.996
 21
103.027
  0
LINE
  8
0
 10
228.996
 20
103.027
 11
228.878
 21
102.719
  0
LINE
  8
0
 10
228.878
 20
102.719
 11
228.728
 21
102.425
  0
LINE
  8
0
 10
228.728
 20
102.425
 11
228.548
 21
102.148
  0
LINE
  8
0
 10
228.548
 20
102.148
 11
228.341
 21
101.892
  0
LINE
  8
0
 10
228.341
 20
101.892
 11
228.108
 21
101.659
  0
LINE
  8
0
 10
228.108
 20
101.659
 11
227.852
 21
101.452
  0
LINE
  8
0
 10
227.852
 20
101.452
 11
227.575
 21
101.272
  0
LINE
  8
0
 10
227.575
 20
101.272
 11
227.281
 21
101.122
  0
LINE
  8
0
 10
227.281
 20
101.122
 11
226.973
 21
101.004
  0
LINE
  8
0
 10
226.973
 20
101.004
 11
226.655
 21
100.919
  0
LINE
  8
0
 10
226.655
 20
100.919
 11
226.329
 21
100.867
  0
LINE
  8
0
 10
226.329
 20
100.867
 11
226
 21
100.85
  0
LINE
  8
0
 10
226
 20
100.85
 11
225.671
 21
100.867
  0
LINE
  8
0
 10
33.6916
 20
101.066
 11
33.3867
 21
101.114
  0
LINE
  8
0
 10
33.3867
 20
101.114
 11
33.0884
 21
101.194
  0
LINE
  8
0
 10
33.0884
 20
101.194
 11
32.8001
 21
101.305
  0
LINE
  8
0
 10
32.8001
 20
101.305
 11
32.525
 21
101.445
  0
LINE
  8
0
 10
32.525
 20
101.445
 11
32.266
 21
101.613
  0
LINE
  8
0
 10
32.266
 20
101.613
 11
32.0261
 21
101.808
  0
LINE
  8
0
 10
32.0261
 20
101.808
 11
31.8077
 21
102.026
  0
LINE
  8
0
 10
31.8077
 20
102.026
 11
31.6134
 21
102.266
  0
LINE
  8
0
 10
31.6134
 20
102.266
 11
31.4452
 21
102.525
  0
LINE
  8
0
 10
31.4452
 20
102.525
 11
31.305
 21
102.8
  0
LINE
  8
0
 10
31.305
 20
102.8
 11
31.1944
 21
103.088
  0
LINE
  8
0
 10
31.1944
 20
103.088
 11
31.1145
 21
103.387
  0
LINE
  8
0
 10
31.1145
 20
103.387
 11
31.0661
 21
103.692
  0
LINE
  8
0
 10
31.0661
 20
103.692
 11
31.05
 21
104
  0
LINE
  8
0
 10
31.05
 20
104
 11
31.0661
 21
104.308
  0
LINE
  8
0
 10
31.0661
 20
104.308
 11
31.1145
 21
104.613
  0
LINE
  8
0
 10
31.1145
 20
104.613
 11
31.1944
 21
104.912
  0
LINE
  8
0
 10
31.1944
 20
104.912
 11
31.305
 21
105.2
  0
LINE
  8
0
 10
31.305
 20
105.2
 11
31.4452
 21
105.475
  0
LINE
  8
0
 10
31.4452
 20
105.475
 11
31.6134
 21
105.734
  0
LINE
  8
0
 10
31.6134
 20
105.734
 11
31.8077
 21
105.974
  0
LINE
  8
0
 10
31.8077
 20
105.974
 11
32.0261
 21
106.192
  0
LINE
  8
0
 10
32.0261
 20
106.192
 11
32.266
 21
106.387
  0
LINE
  8
0
 10
32.266
 20
106.387
 11
32.525
 21
106.555
  0
LINE
  8
0
 10
32.525
 20
106.555
 11
32.8001
 21
106.695
  0
LINE
  8
0
 10
32.8001
 20
106.695
 11
33.0884
 21
106.806
  0
LINE
  8
0
 10
33.0884
 20
106.806
 11
33.3867
 21
106.886
  0
LINE
  8
0
 10
33.3867
 20
106.886
 11
33.6916
 21
106.934
  0
LINE
  8
0
 10
33.6916
 20
106.934
 11
34
 21
106.95
  0
LINE
  8
0
 10
34
 20
106.95
 11
34.3083
 21
106.934
  0
LINE
  8
0
 10
34.3083
 20
106.934
 11
34.6133
 21
106.886
  0
LINE
  8
0
 10
34.6133
 20
106.886
 11
34.9116
 21
106.806
  0
LINE
  8
0
 10
34.9116
 20
106.806
 11
35.1999
 21
106.695
  0
LINE
  8
0
 10
35.1999
 20
106.695
 11
35.475
 21
106.555
  0
LINE
  8
0
 10
35.475
 20
106.555
 11
35.734
 21
106.387
  0
LINE
  8
0
 10
35.734
 20
106.387
 11
35.9739
 21
106.192
  0
LINE
  8
0
 10
35.9739
 20
106.192
 11
36.1923
 21
105.974
  0
LINE
  8
0
 10
36.1923
 20
105.974
 11
36.3866
 21
105.734
  0
LINE
  8
0
 10
36.3866
 20
105.734
 11
36.5548
 21
105.475
  0
LINE
  8
0
 10
36.5548
 20
105.475
 11
36.6949
 21
105.2
  0
LINE
  8
0
 10
36.6949
 20
105.2
 11
36.8056
 21
104.912
  0
LINE
  8
0
 10
36.8056
 20
104.912
 11
36.8855
 21
104.613
  0
LINE
  8
0
 10
36.8855
 20
104.613
 11
36.9338
 21
104.308
  0
LINE
  8
0
 10
36.9338
 20
104.308
 11
36.95
 21
104
  0
LINE
  8
0
 10
36.95
 20
104
 11
36.9338
 21
103.692
  0
LINE
  8
0
 10
36.9338
 20
103.692
 11
36.8855
 21
103.387
  0
LINE
  8
0
 10
36.8855
 20
103.387
 11
36.8056
 21
103.088
  0
LINE
  8
0
 10
36.8056
 20
103.088
 11
36.6949
 21
102.8
  0
LINE
  8
0
 10
36.6949
 20
102.8
 11
36.5548
 21
102.525
  0
LINE
  8
0
 10
36.5548
 20
102.525
 11
36.3866
 21
102.266
  0
LINE
  8
0
 10
36.3866
 20
102.266
 11
36.1923
 21
102.026
  0
LINE
  8
0
 10
36.1923
 20
102.026
 11
35.9739
 21
101.808
  0
LINE
  8
0
 10
35.9739
 20
101.808
 11
35.734
 21
101.613
  0
LINE
  8
0
 10
35.734
 20
101.613
 11
35.475
 21
101.445
  0
LINE
  8
0
 10
35.475
 20
101.445
 11
35.1999
 21
101.305
  0
LINE
  8
0
 10
35.1999
 20
101.305
 11
34.9116
 21
101.194
  0
LINE
  8
0
 10
34.9116
 20
101.194
 11
34.6133
 21
101.114
  0
LINE
  8
0
 10
34.6133
 20
101.114
 11
34.3083
 21
101.066
  0
LINE
  8
0
 10
34.3083
 20
101.066
 11
34
 21
101.05
  0
LINE
  8
0
 10
34
 20
101.05
 11
33.6916
 21
101.066
  0
LINE
  8
0
 10
15.6916
 20
101.066
 11
15.3867
 21
101.114
  0
LINE
  8
0
 10
15.3867
 20
101.114
 11
15.0884
 21
101.194
  0
LINE
  8
0
 10
15.0884
 20
101.194
 11
14.8001
 21
101.305
  0
LINE
  8
0
 10
14.8001
 20
101.305
 11
14.525
 21
101.445
  0
LINE
  8
0
 10
14.525
 20
101.445
 11
14.266
 21
101.613
  0
LINE
  8
0
 10
14.266
 20
101.613
 11
14.0261
 21
101.808
  0
LINE
  8
0
 10
14.0261
 20
101.808
 11
13.8077
 21
102.026
  0
LINE
  8
0
 10
13.8077
 20
102.026
 11
13.6134
 21
102.266
  0
LINE
  8
0
 10
13.6134
 20
102.266
 11
13.4452
 21
102.525
  0
LINE
  8
0
 10
13.4452
 20
102.525
 11
13.305
 21
102.8
  0
LINE
  8
0
 10
13.305
 20
102.8
 11
13.1944
 21
103.088
  0
LINE
  8
0
 10
13.1944
 20
103.088
 11
13.1145
 21
103.387
  0
LINE
  8
0
 10
13.1145
 20
103.387
 11
13.0661
 21
103.692
  0
LINE
  8
0
 10
13.0661
 20
103.692
 11
13.05
 21
104
  0
LINE
  8
0
 10
13.05
 20
104
 11
13.0661
 21
104.308
  0
LINE
  8
0
 10
13.0661
 20
104.308
 11
13.1145
 21
104.613
  0
LINE
  8
0
 10
13.1145
 20
104.613
 11
13.1944
 21
104.912
  0
LINE
  8
0
 10
13.1944
 20
104.912
 11
13.305
 21
105.2
  0
LINE
  8
0
 10
13.305
 20
105.2
 11
13.4452
 21
105.475
  0
LINE
  8
0
 10
13.4452
 20
105.475
 11
13.6134
 21
105.734
  0
LINE
  8
0
 10
13.6134
 20
105.734
 11
13.8077
 21
105.974
  0
LINE
  8
0
 10
13.8077
 20
105.974
 11
14.0261
 21
106.192
  0
LINE
  8
0
 10
14.0261
 20
106.192
 11
14.266
 21
106.387
  0
LINE
  8
0
 10
14.266
 20
106.387
 11
14.525
 21
106.555
  0
LINE
  8
0
 10
14.525
 20
106.555
 11
14.8001
 21
106.695
  0
LINE
  8
0
 10
14.8001
 20
106.695
 11
15.0884
 21
106.806
  0
LINE
  8
0
 10
15.0884
 20
106.806
 11
15.3867
 21
106.886
  0
LINE
  8
0
 10
15.3867
 20
106.886
 11
15.6916
 21
106.934
  0
LINE
  8
0
 10
15.6916
 20
106.934
 11
16
 21
106.95
  0
LINE
  8
0
 10
16
 20
106.95
 11
16.3083
 21
106.934
  0
LINE
  8
0
 10
16.3083
 20
106.934
 11
16.6133
 21
106.886
  0
LINE
  8
0
 10
16.6133
 20
106.886
 11
16.9116
 21
106.806
  0
LINE
  8
0
 10
16.9116
 20
106.806
 11
17.1999
 21
106.695
  0
LINE
  8
0
 10
17.1999
 20
106.695
 11
17.475
 21
106.555
  0
LINE
  8
0
 10
17.475
 20
106.555
 11
17.734
 21
106.387
  0
LINE
  8
0
 10
17.734
 20
106.387
 11
17.9739
 21
106.192
  0
LINE
  8
0
 10
17.9739
 20
106.192
 11
18.1923
 21
105.974
  0
LINE
  8
0
 10
18.1923
 20
105.974
 11
18.3866
 21
105.734
  0
LINE
  8
0
 10
18.3866
 20
105.734
 11
18.5548
 21
105.475
  0
LINE
  8
0
 10
18.5548
 20
105.475
 11
18.6949
 21
105.2
  0
LINE
  8
0
 10
18.6949
 20
105.2
 11
18.8056
 21
104.912
  0
LINE
  8
0
 10
18.8056
 20
104.912
 11
18.8855
 21
104.613
  0
LINE
  8
0
 10
18.8855
 20
104.613
 11
18.9338
 21
104.308
  0
LINE
  8
0
 10
18.9338
 20
104.308
 11
18.95
 21
104
  0
LINE
  8
0
 10
18.95
 20
104
 11
18.9338
 21
103.692
  0
LINE
  8
0
 10
18.9338
 20
103.692
 11
18.8855
 21
103.387
  0
LINE
  8
0
 10
18.8855
 20
103.387
 11
18.8056
 21
103.088
  0
LINE
  8
0
 10
18.8056
 20
103.088
 11
18.6949
 21
102.8
  0
LINE
  8
0
 10
18.6949
 20
102.8
 11
18.5548
 21
102.525
  0
LINE
  8
0
 10
18.5548
 20
102.525
 11
18.3866
 21
102.266
  0
LINE
  8
0
 10
18.3866
 20
102.266
 11
18.1923
 21
102.026
  0
LINE
  8
0
 10
18.1923
 20
102.026
 11
17.9739
 21
101.808
  0
LINE
  8
0
 10
17.9739
 20
101.808
 11
17.734
 21
101.613
  0
LINE
  8
0
 10
17.734
 20
101.613
 11
17.475
 21
101.445
  0
LINE
  8
0
 10
17.475
 20
101.445
 11
17.1999
 21
101.305
  0
LINE
  8
0
 10
17.1999
 20
101.305
 11
16.9116
 21
101.194
  0
LINE
  8
0
 10
16.9116
 20
101.194
 11
16.6133
 21
101.114
  0
LINE
  8
0
 10
16.6133
 20
101.114
 11
16.3083
 21
101.066
  0
LINE
  8
0
 10
16.3083
 20
101.066
 11
16
 21
101.05
  0
LINE
  8
0
 10
16
 20
101.05
 11
15.6916
 21
101.066
  0
LINE
  8
0
 10
225.634
 20
80.5192
 11
225.272
 21
80.5765
  0
LINE
  8
0
 10
225.272
 20
80.5765
 11
224.918
 21
80.6713
  0
LINE
  8
0
 10
224.918
 20
80.6713
 11
224.576
 21
80.8026
  0
LINE
  8
0
 10
224.576
 20
80.8026
 11
224.25
 21
80.9689
  0
LINE
  8
0
 10
224.25
 20
80.9689
 11
223.943
 21
81.1684
  0
LINE
  8
0
 10
223.943
 20
81.1684
 11
223.658
 21
81.399
  0
LINE
  8
0
 10
223.658
 20
81.399
 11
223.399
 21
81.658
  0
LINE
  8
0
 10
223.399
 20
81.658
 11
223.168
 21
81.9427
  0
LINE
  8
0
 10
223.168
 20
81.9427
 11
222.969
 21
82.25
  0
LINE
  8
0
 10
222.969
 20
82.25
 11
222.803
 21
82.5764
  0
LINE
  8
0
 10
222.803
 20
82.5764
 11
222.671
 21
82.9184
  0
LINE
  8
0
 10
222.671
 20
82.9184
 11
222.576
 21
83.2723
  0
LINE
  8
0
 10
222.576
 20
83.2723
 11
222.519
 21
83.6341
  0
LINE
  8
0
 10
222.519
 20
83.6341
 11
222.5
 21
84
  0
LINE
  8
0
 10
222.5
 20
84
 11
222.519
 21
84.3658
  0
LINE
  8
0
 10
222.519
 20
84.3658
 11
222.576
 21
84.7277
  0
LINE
  8
0
 10
222.576
 20
84.7277
 11
222.671
 21
85.0816
  0
LINE
  8
0
 10
222.671
 20
85.0816
 11
222.803
 21
85.4236
  0
LINE
  8
0
 10
222.803
 20
85.4236
 11
222.969
 21
85.75
  0
LINE
  8
0
 10
222.969
 20
85.75
 11
223.168
 21
86.0572
  0
LINE
  8
0
 10
223.168
 20
86.0572
 11
223.399
 21
86.3419
  0
LINE
  8
0
 10
223.399
 20
86.3419
 11
223.658
 21
86.601
  0
LINE
  8
0
 10
223.658
 20
86.601
 11
223.943
 21
86.8316
  0
LINE
  8
0
 10
223.943
 20
86.8316
 11
224.25
 21
87.0311
  0
LINE
  8
0
 10
224.25
 20
87.0311
 11
224.576
 21
87.1974
  0
LINE
  8
0
 10
224.576
 20
87.1974
 11
224.918
 21
87.3287
  0
LINE
  8
0
 10
224.918
 20
87.3287
 11
225.272
 21
87.4235
  0
LINE
  8
0
 10
225.272
 20
87.4235
 11
225.634
 21
87.4808
  0
LINE
  8
0
 10
225.634
 20
87.4808
 11
226
 21
87.5
  0
LINE
  8
0
 10
226
 20
87.5
 11
226.366
 21
87.4808
  0
LINE
  8
0
 10
226.366
 20
87.4808
 11
226.728
 21
87.4235
  0
LINE
  8
0
 10
226.728
 20
87.4235
 11
227.082
 21
87.3287
  0
LINE
  8
0
 10
227.082
 20
87.3287
 11
227.424
 21
87.1974
  0
LINE
  8
0
 10
227.424
 20
87.1974
 11
227.75
 21
87.0311
  0
LINE
  8
0
 10
227.75
 20
87.0311
 11
228.057
 21
86.8316
  0
LINE
  8
0
 10
228.057
 20
86.8316
 11
228.342
 21
86.601
  0
LINE
  8
0
 10
228.342
 20
86.601
 11
228.601
 21
86.3419
  0
LINE
  8
0
 10
228.601
 20
86.3419
 11
228.832
 21
86.0572
  0
LINE
  8
0
 10
228.832
 20
86.0572
 11
229.031
 21
85.75
  0
LINE
  8
0
 10
229.031
 20
85.75
 11
229.197
 21
85.4236
  0
LINE
  8
0
 10
229.197
 20
85.4236
 11
229.329
 21
85.0816
  0
LINE
  8
0
 10
229.329
 20
85.0816
 11
229.424
 21
84.7277
  0
LINE
  8
0
 10
229.424
 20
84.7277
 11
229.481
 21
84.3658
  0
LINE
  8
0
 10
229.481
 20
84.3658
 11
229.5
 21
84
  0
LINE
  8
0
 10
229.5
 20
84
 11
229.481
 21
83.6341
  0
LINE
  8
0
 10
229.481
 20
83.6341
 11
229.424
 21
83.2723
  0
LINE
  8
0
 10
229.424
 20
83.2723
 11
229.329
 21
82.9184
  0
LINE
  8
0
 10
229.329
 20
82.9184
 11
229.197
 21
82.5764
  0
LINE
  8
0
 10
229.197
 20
82.5764
 11
229.031
 21
82.25
  0
LINE
  8
0
 10
229.031
 20
82.25
 11
228.832
 21
81.9427
  0
LINE
  8
0
 10
228.832
 20
81.9427
 11
228.601
 21
81.658
  0
LINE
  8
0
 10
228.601
 20
81.658
 11
228.342
 21
81.399
  0
LINE
  8
0
 10
228.342
 20
81.399
 11
228.057
 21
81.1684
  0
LINE
  8
0
 10
228.057
 20
81.1684
 11
227.75
 21
80.9689
  0
LINE
  8
0
 10
227.75
 20
80.9689
 11
227.424
 21
80.8026
  0
LINE
  8
0
 10
227.424
 20
80.8026
 11
227.082
 21
80.6713
  0
LINE
  8
0
 10
227.082
 20
80.6713
 11
226.728
 21
80.5765
  0
LINE
  8
0
 10
226.728
 20
80.5765
 11
226.366
 21
80.5192
  0
LINE
  8
0
 10
226.366
 20
80.5192
 11
226
 21
80.5
  0
LINE
  8
0
 10
226
 20
80.5
 11
225.634
 21
80.5192
  0
LINE
  8
0
 10
243.634
 20
80.5192
 11
243.272
 21
80.5765
  0
LINE
  8
0
 10
243.272
 20
80.5765
 11
242.918
 21
80.6713
  0
LINE
  8
0
 10
242.918
 20
80.6713
 11
242.576
 21
80.8026
  0
LINE
  8
0
 10
242.576
 20
80.8026
 11
242.25
 21
80.9689
  0
LINE
  8
0
 10
242.25
 20
80.9689
 11
241.943
 21
81.1684
  0
LINE
  8
0
 10
241.943
 20
81.1684
 11
241.658
 21
81.399
  0
LINE
  8
0
 10
241.658
 20
81.399
 11
241.399
 21
81.658
  0
LINE
  8
0
 10
241.399
 20
81.658
 11
241.168
 21
81.9427
  0
LINE
  8
0
 10
241.168
 20
81.9427
 11
240.969
 21
82.25
  0
LINE
  8
0
 10
240.969
 20
82.25
 11
240.803
 21
82.5764
  0
LINE
  8
0
 10
240.803
 20
82.5764
 11
240.671
 21
82.9184
  0
LINE
  8
0
 10
240.671
 20
82.9184
 11
240.576
 21
83.2723
  0
LINE
  8
0
 10
240.576
 20
83.2723
 11
240.519
 21
83.6341
  0
LINE
  8
0
 10
240.519
 20
83.6341
 11
240.5
 21
84
  0
LINE
  8
0
 10
240.5
 20
84
 11
240.519
 21
84.3658
  0
LINE
  8
0
 10
240.519
 20
84.3658
 11
240.576
 21
84.7277
  0
LINE
  8
0
 10
240.576
 20
84.7277
 11
240.671
 21
85.0816
  0
LINE
  8
0
 10
240.671
 20
85.0816
 11
240.803
 21
85.4236
  0
LINE
  8
0
 10
240.803
 20
85.4236
 11
240.969
 21
85.75
  0
LINE
  8
0
 10
240.969
 20
85.75
 11
241.168
 21
86.0572
  0
LINE
  8
0
 10
241.168
 20
86.0572
 11
241.399
 21
86.3419
  0
LINE
  8
0
 10
241.399
 20
86.3419
 11
241.658
 21
86.601
  0
LINE
  8
0
 10
241.658
 20
86.601
 11
241.943
 21
86.8316
  0
LINE
  8
0
 10
241.943
 20
86.8316
 11
242.25
 21
87.0311
  0
LINE
  8
0
 10
242.25
 20
87.0311
 11
242.576
 21
87.1974
  0
LINE
  8
0
 10
242.576
 20
87.1974
 11
242.918
 21
87.3287
  0
LINE
  8
0
 10
242.918
 20
87.3287
 11
243.272
 21
87.4235
  0
LINE
  8
0
 10
243.272
 20
87.4235
 11
243.634
 21
87.4808
  0
LINE
  8
0
 10
243.634
 20
87.4808
 11
244
 21
87.5
  0
LINE
  8
0
 10
244
 20
87.5
 11
244.366
 21
87.4808
  0
LINE
  8
0
 10
244.366
 20
87.4808
 11
244.728
 21
87.4235
  0
LINE
  8
0
 10
244.728
 20
87.4235
 11
245.082
 21
87.3287
  0
LINE
  8
0
 10
245.082
 20
87.3287
 11
245.424
 21
87.1974
  0
LINE
  8
0
 10
245.424
 20
87.1974
 11
245.75
 21
87.0311
  0
LINE
  8
0
 10
245.75
 20
87.0311
 11
246.057
 21
86.8316
  0
LINE
  8
0
 10
246.057
 20
86.8316
 11
246.342
 21
86.601
  0
LINE
  8
0
 10
246.342
 20
86.601
 11
246.601
 21
86.3419
  0
LINE
  8
0
 10
246.601
 20
86.3419
 11
246.832
 21
86.0572
  0
LINE
  8
0
 10
246.832
 20
86.0572
 11
247.031
 21
85.75
  0
LINE
  8
0
 10
247.031
 20
85.75
 11
247.197
 21
85.4236
  0
LINE
  8
0
 10
247.197
 20
85.4236
 11
247.329
 21
85.0816
  0
LINE
  8
0
 10
247.329
 20
85.0816
 11
247.424
 21
84.7277
  0
LINE
  8
0
 10
247.424
 20
84.7277
 11
247.481
 21
84.3658
  0
LINE
  8
0
 10
247.481
 20
84.3658
 11
247.5
 21
84
  0
LINE
  8
0
 10
247.5
 20
84
 11
247.481
 21
83.6341
  0
LINE
  8
0
 10
247.481
 20
83.6341
 11
247.424
 21
83.2723
  0
LINE
  8
0
 10
247.424
 20
83.2723
 11
247.329
 21
82.9184
  0
LINE
  8
0
 10
247.329
 20
82.9184
 11
247.197
 21
82.5764
  0
LINE
  8
0
 10
247.197
 20
82.5764
 11
247.031
 21
82.25
  0
LINE
  8
0
 10
247.031
 20
82.25
 11
246.832
 21
81.9427
  0
LINE
  8
0
 10
246.832
 20
81.9427
 11
246.601
 21
81.658
  0
LINE
  8
0
 10
246.601
 20
81.658
 11
246.342
 21
81.399
  0
LINE
  8
0
 10
246.342
 20
81.399
 11
246.057
 21
81.1684
  0
LINE
  8
0
 10
246.057
 20
81.1684
 11
245.75
 21
80.9689
  0
LINE
  8
0
 10
245.75
 20
80.9689
 11
245.424
 21
80.8026
  0
LINE
  8
0
 10
245.424
 20
80.8026
 11
245.082
 21
80.6713
  0
LINE
  8
0
 10
245.082
 20
80.6713
 11
244.728
 21
80.5765
  0
LINE
  8
0
 10
244.728
 20
80.5765
 11
244.366
 21
80.5192
  0
LINE
  8
0
 10
244.366
 20
80.5192
 11
244
 21
80.5
  0
LINE
  8
0
 10
244
 20
80.5
 11
243.634
 21
80.5192
  0
LINE
  8
0
 10
33.6916
 20
81.0661
 11
33.3867
 21
81.1145
  0
LINE
  8
0
 10
33.3867
 20
81.1145
 11
33.0884
 21
81.1944
  0
LINE
  8
0
 10
33.0884
 20
81.1944
 11
32.8001
 21
81.305
  0
LINE
  8
0
 10
32.8001
 20
81.305
 11
32.525
 21
81.4452
  0
LINE
  8
0
 10
32.525
 20
81.4452
 11
32.266
 21
81.6134
  0
LINE
  8
0
 10
32.266
 20
81.6134
 11
32.0261
 21
81.8077
  0
LINE
  8
0
 10
32.0261
 20
81.8077
 11
31.8077
 21
82.0261
  0
LINE
  8
0
 10
31.8077
 20
82.0261
 11
31.6134
 21
82.266
  0
LINE
  8
0
 10
31.6134
 20
82.266
 11
31.4452
 21
82.525
  0
LINE
  8
0
 10
31.4452
 20
82.525
 11
31.305
 21
82.8001
  0
LINE
  8
0
 10
31.305
 20
82.8001
 11
31.1944
 21
83.0884
  0
LINE
  8
0
 10
31.1944
 20
83.0884
 11
31.1145
 21
83.3867
  0
LINE
  8
0
 10
31.1145
 20
83.3867
 11
31.0661
 21
83.6916
  0
LINE
  8
0
 10
31.0661
 20
83.6916
 11
31.05
 21
84
  0
LINE
  8
0
 10
31.05
 20
84
 11
31.0661
 21
84.3083
  0
LINE
  8
0
 10
31.0661
 20
84.3083
 11
31.1145
 21
84.6133
  0
LINE
  8
0
 10
31.1145
 20
84.6133
 11
31.1944
 21
84.9116
  0
LINE
  8
0
 10
31.1944
 20
84.9116
 11
31.305
 21
85.1999
  0
LINE
  8
0
 10
31.305
 20
85.1999
 11
31.4452
 21
85.475
  0
LINE
  8
0
 10
31.4452
 20
85.475
 11
31.6134
 21
85.734
  0
LINE
  8
0
 10
31.6134
 20
85.734
 11
31.8077
 21
85.9739
  0
LINE
  8
0
 10
31.8077
 20
85.9739
 11
32.0261
 21
86.1923
  0
LINE
  8
0
 10
32.0261
 20
86.1923
 11
32.266
 21
86.3866
  0
LINE
  8
0
 10
32.266
 20
86.3866
 11
32.525
 21
86.5548
  0
LINE
  8
0
 10
32.525
 20
86.5548
 11
32.8001
 21
86.6949
  0
LINE
  8
0
 10
32.8001
 20
86.6949
 11
33.0884
 21
86.8056
  0
LINE
  8
0
 10
33.0884
 20
86.8056
 11
33.3867
 21
86.8855
  0
LINE
  8
0
 10
33.3867
 20
86.8855
 11
33.6916
 21
86.9338
  0
LINE
  8
0
 10
33.6916
 20
86.9338
 11
34
 21
86.95
  0
LINE
  8
0
 10
34
 20
86.95
 11
34.3083
 21
86.9338
  0
LINE
  8
0
 10
34.3083
 20
86.9338
 11
34.6133
 21
86.8855
  0
LINE
  8
0
 10
34.6133
 20
86.8855
 11
34.9116
 21
86.8056
  0
LINE
  8
0
 10
34.9116
 20
86.8056
 11
35.1999
 21
86.6949
  0
LINE
  8
0
 10
35.1999
 20
86.6949
 11
35.475
 21
86.5548
  0
LINE
  8
0
 10
35.475
 20
86.5548
 11
35.734
 21
86.3866
  0
LINE
  8
0
 10
35.734
 20
86.3866
 11
35.9739
 21
86.1923
  0
LINE
  8
0
 10
35.9739
 20
86.1923
 11
36.1923
 21
85.9739
  0
LINE
  8
0
 10
36.1923
 20
85.9739
 11
36.3866
 21
85.734
  0
LINE
  8
0
 10
36.3866
 20
85.734
 11
36.5548
 21
85.475
  0
LINE
  8
0
 10
36.5548
 20
85.475
 11
36.6949
 21
85.1999
  0
LINE
  8
0
 10
36.6949
 20
85.1999
 11
36.8056
 21
84.9116
  0
LINE
  8
0
 10
36.8056
 20
84.9116
 11
36.8855
 21
84.6133
  0
LINE
  8
0
 10
36.8855
 20
84.6133
 11
36.9338
 21
84.3083
  0
LINE
  8
0
 10
36.9338
 20
84.3083
 11
36.95
 21
84
  0
LINE
  8
0
 10
36.95
 20
84
 11
36.9338
 21
83.6916
  0
LINE
  8
0
 10
36.9338
 20
83.6916
 11
36.8855
 21
83.3867
  0
LINE
  8
0
 10
36.8855
 20
83.3867
 11
36.8056
 21
83.0884
  0
LINE
  8
0
 10
36.8056
 20
83.0884
 11
36.6949
 21
82.8001
  0
LINE
  8
0
 10
36.6949
 20
82.8001
 11
36.5548
 21
82.525
  0
LINE
  8
0
 10
36.5548
 20
82.525
 11
36.3866
 21
82.266
  0
LINE
  8
0
 10
36.3866
 20
82.266
 11
36.1923
 21
82.0261
  0
LINE
  8
0
 10
36.1923
 20
82.0261
 11
35.9739
 21
81.8077
  0
LINE
  8
0
 10
35.9739
 20
81.8077
 11
35.734
 21
81.6134
  0
LINE
  8
0
 10
35.734
 20
81.6134
 11
35.475
 21
81.4452
  0
LINE
  8
0
 10
35.475
 20
81.4452
 11
35.1999
 21
81.305
  0
LINE
  8
0
 10
35.1999
 20
81.305
 11
34.9116
 21
81.1944
  0
LINE
  8
0
 10
34.9116
 20
81.1944
 11
34.6133
 21
81.1145
  0
LINE
  8
0
 10
34.6133
 20
81.1145
 11
34.3083
 21
81.0661
  0
LINE
  8
0
 10
34.3083
 20
81.0661
 11
34
 21
81.05
  0
LINE
  8
0
 10
34
 20
81.05
 11
33.6916
 21
81.0661
  0
LINE
  8
0
 10
15.6916
 20
81.0661
 11
15.3867
 21
81.1145
  0
LINE
  8
0
 10
15.3867
 20
81.1145
 11
15.0884
 21
81.1944
  0
LINE
  8
0
 10
15.0884
 20
81.1944
 11
14.8001
 21
81.305
  0
LINE
  8
0
 10
14.8001
 20
81.305
 11
14.525
 21
81.4452
  0
LINE
  8
0
 10
14.525
 20
81.4452
 11
14.266
 21
81.6134
  0
LINE
  8
0
 10
14.266
 20
81.6134
 11
14.0261
 21
81.8077
  0
LINE
  8
0
 10
14.0261
 20
81.8077
 11
13.8077
 21
82.0261
  0
LINE
  8
0
 10
13.8077
 20
82.0261
 11
13.6134
 21
82.266
  0
LINE
  8
0
 10
13.6134
 20
82.266
 11
13.4452
 21
82.525
  0
LINE
  8
0
 10
13.4452
 20
82.525
 11
13.305
 21
82.8001
  0
LINE
  8
0
 10
13.305
 20
82.8001
 11
13.1944
 21
83.0884
  0
LINE
  8
0
 10
13.1944
 20
83.0884
 11
13.1145
 21
83.3867
  0
LINE
  8
0
 10
13.1145
 20
83.3867
 11
13.0661
 21
83.6916
  0
LINE
  8
0
 10
13.0661
 20
83.6916
 11
13.05
 21
84
  0
LINE
  8
0
 10
13.05
 20
84
 11
13.0661
 21
84.3083
  0
LINE
  8
0
 10
13.0661
 20
84.3083
 11
13.1145
 21
84.6133
  0
LINE
  8
0
 10
13.1145
 20
84.6133
 11
13.1944
 21
84.9116
  0
LINE
  8
0
 10
13.1944
 20
84.9116
 11
13.305
 21
85.1999
  0
LINE
  8
0
 10
13.305
 20
85.1999
 11
13.4452
 21
85.475
  0
LINE
  8
0
 10
13.4452
 20
85.475
 11
13.6134
 21
85.734
  0
LINE
  8
0
 10
13.6134
 20
85.734
 11
13.8077
 21
85.9739
  0
LINE
  8
0
 10
13.8077
 20
85.9739
 11
14.0261
 21
86.1923
  0
LINE
  8
0
 10
14.0261
 20
86.1923
 11
14.266
 21
86.3866
  0
LINE
  8
0
 10
14.266
 20
86.3866
 11
14.525
 21
86.5548
  0
LINE
  8
0
 10
14.525
 20
86.5548
 11
14.8001
 21
86.6949
  0
LINE
  8
0
 10
14.8001
 20
86.6949
 11
15.0884
 21
86.8056
  0
LINE
  8
0
 10
15.0884
 20
86.8056
 11
15.3867
 21
86.8855
  0
LINE
  8
0
 10
15.3867
 20
86.8855
 11
15.6916
 21
86.9338
  0
LINE
  8
0
 10
15.6916
 20
86.9338
 11
16
 21
86.95
  0
LINE
  8
0
 10
16
 20
86.95
 11
16.3083
 21
86.9338
  0
LINE
  8
0
 10
16.3083
 20
86.9338
 11
16.6133
 21
86.8855
  0
LINE
  8
0
 10
16.6133
 20
86.8855
 11
16.9116
 21
86.8056
  0
LINE
  8
0
 10
16.9116
 20
86.8056
 11
17.1999
 21
86.6949
  0
LINE
  8
0
 10
17.1999
 20
86.6949
 11
17.475
 21
86.5548
  0
LINE
  8
0
 10
17.475
 20
86.5548
 11
17.734
 21
86.3866
  0
LINE
  8
0
 10
17.734
 20
86.3866
 11
17.9739
 21
86.1923
  0
LINE
  8
0
 10
17.9739
 20
86.1923
 11
18.1923
 21
85.9739
  0
LINE
  8
0
 10
18.1923
 20
85.9739
 11
18.3866
 21
85.734
  0
LINE
  8
0
 10
18.3866
 20
85.734
 11
18.5548
 21
85.475
  0
LINE
  8
0
 10
18.5548
 20
85.475
 11
18.6949
 21
85.1999
  0
LINE
  8
0
 10
18.6949
 20
85.1999
 11
18.8056
 21
84.9116
  0
LINE
  8
0
 10
18.8056
 20
84.9116
 11
18.8855
 21
84.6133
  0
LINE
  8
0
 10
18.8855
 20
84.6133
 11
18.9338
 21
84.3083
  0
LINE
  8
0
 10
18.9338
 20
84.3083
 11
18.95
 21
84
  0
LINE
  8
0
 10
18.95
 20
84
 11
18.9338
 21
83.6916
  0
LINE
  8
0
 10
18.9338
 20
83.6916
 11
18.8855
 21
83.3867
  0
LINE
  8
0
 10
18.8855
 20
83.3867
 11
18.8056
 21
83.0884
  0
LINE
  8
0
 10
18.8056
 20
83.0884
 11
18.6949
 21
82.8001
  0
LINE
  8
0
 10
18.6949
 20
82.8001
 11
18.5548
 21
82.525
  0
LINE
  8
0
 10
18.5548
 20
82.525
 11
18.3866
 21
82.266
  0
LINE
  8
0
 10
18.3866
 20
82.266
 11
18.1923
 21
82.0261
  0
LINE
  8
0
 10
18.1923
 20
82.0261
 11
17.9739
 21
81.8077
  0
LINE
  8
0
 10
17.9739
 20
81.8077
 11
17.734
 21
81.6134
  0
LINE
  8
0
 10
17.734
 20
81.6134
 11
17.475
 21
81.4452
  0
LINE
  8
0
 10
17.475
 20
81.4452
 11
17.1999
 21
81.305
  0
LINE
  8
0
 10
17.1999
 20
81.305
 11
16.9116
 21
81.1944
  0
LINE
  8
0
 10
16.9116
 20
81.1944
 11
16.6133
 21
81.1145
  0
LINE
  8
0
 10
16.6133
 20
81.1145
 11
16.3083
 21
81.0661
  0
LINE
  8
0
 10
16.3083
 20
81.0661
 11
16
 21
81.05
  0
LINE
  8
0
 10
16
 20
81.05
 11
15.6916
 21
81.0661
  0
LINE
  8
0
 10
225.634
 20
60.5192
 11
225.272
 21
60.5765
  0
LINE
  8
0
 10
225.272
 20
60.5765
 11
224.918
 21
60.6713
  0
LINE
  8
0
 10
224.918
 20
60.6713
 11
224.576
 21
60.8026
  0
LINE
  8
0
 10
224.576
 20
60.8026
 11
224.25
 21
60.9689
  0
LINE
  8
0
 10
224.25
 20
60.9689
 11
223.943
 21
61.1684
  0
LINE
  8
0
 10
223.943
 20
61.1684
 11
223.658
 21
61.399
  0
LINE
  8
0
 10
223.658
 20
61.399
 11
223.399
 21
61.658
  0
LINE
  8
0
 10
223.399
 20
61.658
 11
223.168
 21
61.9427
  0
LINE
  8
0
 10
223.168
 20
61.9427
 11
222.969
 21
62.25
  0
LINE
  8
0
 10
222.969
 20
62.25
 11
222.803
 21
62.5764
  0
LINE
  8
0
 10
222.803
 20
62.5764
 11
222.671
 21
62.9184
  0
LINE
  8
0
 10
222.671
 20
62.9184
 11
222.576
 21
63.2723
  0
LINE
  8
0
 10
222.576
 20
63.2723
 11
222.519
 21
63.6341
  0
LINE
  8
0
 10
222.519
 20
63.6341
 11
222.5
 21
64
  0
LINE
  8
0
 10
222.5
 20
64
 11
222.519
 21
64.3658
  0
LINE
  8
0
 10
222.519
 20
64.3658
 11
222.576
 21
64.7277
  0
LINE
  8
0
 10
222.576
 20
64.7277
 11
222.671
 21
65.0816
  0
LINE
  8
0
 10
222.671
 20
65.0816
 11
222.803
 21
65.4236
  0
LINE
  8
0
 10
222.803
 20
65.4236
 11
222.969
 21
65.75
  0
LINE
  8
0
 10
222.969
 20
65.75
 11
223.168
 21
66.0572
  0
LINE
  8
0
 10
223.168
 20
66.0572
 11
223.399
 21
66.3419
  0
LINE
  8
0
 10
223.399
 20
66.3419
 11
223.658
 21
66.601
  0
LINE
  8
0
 10
223.658
 20
66.601
 11
223.943
 21
66.8316
  0
LINE
  8
0
 10
223.943
 20
66.8316
 11
224.25
 21
67.0311
  0
LINE
  8
0
 10
224.25
 20
67.0311
 11
224.576
 21
67.1974
  0
LINE
  8
0
 10
224.576
 20
67.1974
 11
224.918
 21
67.3287
  0
LINE
  8
0
 10
224.918
 20
67.3287
 11
225.272
 21
67.4235
  0
LINE
  8
0
 10
225.272
 20
67.4235
 11
225.634
 21
67.4808
  0
LINE
  8
0
 10
225.634
 20
67.4808
 11
226
 21
67.5
  0
LINE
  8
0
 10
226
 20
67.5
 11
226.366
 21
67.4808
  0
LINE
  8
0
 10
226.366
 20
67.4808
 11
226.728
 21
67.4235
  0
LINE
  8
0
 10
226.728
 20
67.4235
 11
227.082
 21
67.3287
  0
LINE
  8
0
 10
227.082
 20
67.3287
 11
227.424
 21
67.1974
  0
LINE
  8
0
 10
227.424
 20
67.1974
 11
227.75
 21
67.0311
  0
LINE
  8
0
 10
227.75
 20
67.0311
 11
228.057
 21
66.8316
  0
LINE
  8
0
 10
228.057
 20
66.8316
 11
228.342
 21
66.601
  0
LINE
  8
0
 10
228.342
 20
66.601
 11
228.601
 21
66.3419
  0
LINE
  8
0
 10
228.601
 20
66.3419
 11
228.832
 21
66.0572
  0
LINE
  8
0
 10
228.832
 20
66.0572
 11
229.031
 21
65.75
  0
LINE
  8
0
 10
229.031
 20
65.75
 11
229.197
 21
65.4236
  0
LINE
  8
0
 10
229.197
 20
65.4236
 11
229.329
 21
65.0816
  0
LINE
  8
0
 10
229.329
 20
65.0816
 11
229.424
 21
64.7277
  0
LINE
  8
0
 10
229.424
 20
64.7277
 11
229.481
 21
64.3658
  0
LINE
  8
0
 10
229.481
 20
64.3658
 11
229.5
 21
64
  0
LINE
  8
0
 10
229.5
 20
64
 11
229.481
 21
63.6341
  0
LINE
  8
0
 10
229.481
 20
63.6341
 11
229.424
 21
63.2723
  0
LINE
  8
0
 10
229.424
 20
63.2723
 11
229.329
 21
62.9184
  0
LINE
  8
0
 10
229.329
 20
62.9184
 11
229.197
 21
62.5764
  0
LINE
  8
0
 10
229.197
 20
62.5764
 11
229.031
 21
62.25
  0
LINE
  8
0
 10
229.031
 20
62.25
 11
228.832
 21
61.9427
  0
LINE
  8
0
 10
228.832
 20
61.9427
 11
228.601
 21
61.658
  0
LINE
  8
0
 10
228.601
 20
61.658
 11
228.342
 21
61.399
  0
LINE
  8
0
 10
228.342
 20
61.399
 11
228.057
 21
61.1684
  0
LINE
  8
0
 10
228.057
 20
61.1684
 11
227.75
 21
60.9689
  0
LINE
  8
0
 10
227.75
 20
60.9689
 11
227.424
 21
60.8026
  0
LINE
  8
0
 10
227.424
 20
60.8026
 11
227.082
 21
60.6713
  0
LINE
  8
0
 10
227.082
 20
60.6713
 11
226.728
 21
60.5765
  0
LINE
  8
0
 10
226.728
 20
60.5765
 11
226.366
 21
60.5192
  0
LINE
  8
0
 10
226.366
 20
60.5192
 11
226
 21
60.5
  0
LINE
  8
0
 10
226
 20
60.5
 11
225.634
 21
60.5192
  0
LINE
  8
0
 10
243.634
 20
60.5192
 11
243.272
 21
60.5765
  0
LINE
  8
0
 10
243.272
 20
60.5765
 11
242.918
 21
60.6713
  0
LINE
  8
0
 10
242.918
 20
60.6713
 11
242.576
 21
60.8026
  0
LINE
  8
0
 10
242.576
 20
60.8026
 11
242.25
 21
60.9689
  0
LINE
  8
0
 10
242.25
 20
60.9689
 11
241.943
 21
61.1684
  0
LINE
  8
0
 10
241.943
 20
61.1684
 11
241.658
 21
61.399
  0
LINE
  8
0
 10
241.658
 20
61.399
 11
241.399
 21
61.658
  0
LINE
  8
0
 10
241.399
 20
61.658
 11
241.168
 21
61.9427
  0
LINE
  8
0
 10
241.168
 20
61.9427
 11
240.969
 21
62.25
  0
LINE
  8
0
 10
240.969
 20
62.25
 11
240.803
 21
62.5764
  0
LINE
  8
0
 10
240.803
 20
62.5764
 11
240.671
 21
62.9184
  0
LINE
  8
0
 10
240.671
 20
62.9184
 11
240.576
 21
63.2723
  0
LINE
  8
0
 10
240.576
 20
63.2723
 11
240.519
 21
63.6341
  0
LINE
  8
0
 10
240.519
 20
63.6341
 11
240.5
 21
64
  0
LINE
  8
0
 10
240.5
 20
64
 11
240.519
 21
64.3658
  0
LINE
  8
0
 10
240.519
 20
64.3658
 11
240.576
 21
64.7277
  0
LINE
  8
0
 10
240.576
 20
64.7277
 11
240.671
 21
65.0816
  0
LINE
  8
0
 10
240.671
 20
65.0816
 11
240.803
 21
65.4236
  0
LINE
  8
0
 10
240.803
 20
65.4236
 11
240.969
 21
65.75
  0
LINE
  8
0
 10
240.969
 20
65.75
 11
241.168
 21
66.0572
  0
LINE
  8
0
 10
241.168
 20
66.0572
 11
241.399
 21
66.3419
  0
LINE
  8
0
 10
241.399
 20
66.3419
 11
241.658
 21
66.601
  0
LINE
  8
0
 10
241.658
 20
66.601
 11
241.943
 21
66.8316
  0
LINE
  8
0
 10
241.943
 20
66.8316
 11
242.25
 21
67.0311
  0
LINE
  8
0
 10
242.25
 20
67.0311
 11
242.576
 21
67.1974
  0
LINE
  8
0
 10
242.576
 20
67.1974
 11
242.918
 21
67.3287
  0
LINE
  8
0
 10
242.918
 20
67.3287
 11
243.272
 21
67.4235
  0
LINE
  8
0
 10
243.272
 20
67.4235
 11
243.634
 21
67.4808
  0
LINE
  8
0
 10
243.634
 20
67.4808
 11
244
 21
67.5
  0
LINE
  8
0
 10
244
 20
67.5
 11
244.366
 21
67.4808
  0
LINE
  8
0
 10
244.366
 20
67.4808
 11
244.728
 21
67.4235
  0
LINE
  8
0
 10
244.728
 20
67.4235
 11
245.082
 21
67.3287
  0
LINE
  8
0
 10
245.082
 20
67.3287
 11
245.424
 21
67.1974
  0
LINE
  8
0
 10
245.424
 20
67.1974
 11
245.75
 21
67.0311
  0
LINE
  8
0
 10
245.75
 20
67.0311
 11
246.057
 21
66.8316
  0
LINE
  8
0
 10
246.057
 20
66.8316
 11
246.342
 21
66.601
  0
LINE
  8
0
 10
246.342
 20
66.601
 11
246.601
 21
66.3419
  0
LINE
  8
0
 10
246.601
 20
66.3419
 11
246.832
 21
66.0572
  0
LINE
  8
0
 10
246.832
 20
66.0572
 11
247.031
 21
65.75
  0
LINE
  8
0
 10
247.031
 20
65.75
 11
247.197
 21
65.4236
  0
LINE
  8
0
 10
247.197
 20
65.4236
 11
247.329
 21
65.0816
  0
LINE
  8
0
 10
247.329
 20
65.0816
 11
247.424
 21
64.7277
  0
LINE
  8
0
 10
247.424
 20
64.7277
 11
247.481
 21
64.3658
  0
LINE
  8
0
 10
247.481
 20
64.3658
 11
247.5
 21
64
  0
LINE
  8
0
 10
247.5
 20
64
 11
247.481
 21
63.6341
  0
LINE
  8
0
 10
247.481
 20
63.6341
 11
247.424
 21
63.2723
  0
LINE
  8
0
 10
247.424
 20
63.2723
 11
247.329
 21
62.9184
  0
LINE
  8
0
 10
247.329
 20
62.9184
 11
247.197
 21
62.5764
  0
LINE
  8
0
 10
247.197
 20
62.5764
 11
247.031
 21
62.25
  0
LINE
  8
0
 10
247.031
 20
62.25
 11
246.832
 21
61.9427
  0
LINE
  8
0
 10
246.832
 20
61.9427
 11
246.601
 21
61.658
  0
LINE
  8
0
 10
246.601
 20
61.658
 11
246.342
 21
61.399
  0
LINE
  8
0
 10
246.342
 20
61.399
 11
246.057
 21
61.1684
  0
LINE
  8
0
 10
246.057
 20
61.1684
 11
245.75
 21
60.9689
  0
LINE
  8
0
 10
245.75
 20
60.9689
 11
245.424
 21
60.8026
  0
LINE
  8
0
 10
245.424
 20
60.8026
 11
245.082
 21
60.6713
  0
LINE
  8
0
 10
245.082
 20
60.6713
 11
244.728
 21
60.5765
  0
LINE
  8
0
 10
244.728
 20
60.5765
 11
244.366
 21
60.5192
  0
LINE
  8
0
 10
244.366
 20
60.5192
 11
244
 21
60.5
  0
LINE
  8
0
 10
244
 20
60.5
 11
243.634
 21
60.5192
  0
LINE
  8
0
 10
33.6916
 20
61.0661
 11
33.3867
 21
61.1145
  0
LINE
  8
0
 10
33.3867
 20
61.1145
 11
33.0884
 21
61.1944
  0
LINE
  8
0
 10
33.0884
 20
61.1944
 11
32.8001
 21
61.305
  0
LINE
  8
0
 10
32.8001
 20
61.305
 11
32.525
 21
61.4452
  0
LINE
  8
0
 10
32.525
 20
61.4452
 11
32.266
 21
61.6134
  0
LINE
  8
0
 10
32.266
 20
61.6134
 11
32.0261
 21
61.8077
  0
LINE
  8
0
 10
32.0261
 20
61.8077
 11
31.8077
 21
62.0261
  0
LINE
  8
0
 10
31.8077
 20
62.0261
 11
31.6134
 21
62.266
  0
LINE
  8
0
 10
31.6134
 20
62.266
 11
31.4452
 21
62.525
  0
LINE
  8
0
 10
31.4452
 20
62.525
 11
31.305
 21
62.8001
  0
LINE
  8
0
 10
31.305
 20
62.8001
 11
31.1944
 21
63.0884
  0
LINE
  8
0
 10
31.1944
 20
63.0884
 11
31.1145
 21
63.3867
  0
LINE
  8
0
 10
31.1145
 20
63.3867
 11
31.0661
 21
63.6916
  0
LINE
  8
0
 10
31.0661
 20
63.6916
 11
31.05
 21
64
  0
LINE
  8
0
 10
31.05
 20
64
 11
31.0661
 21
64.3083
  0
LINE
  8
0
 10
31.0661
 20
64.3083
 11
31.1145
 21
64.6133
  0
LINE
  8
0
 10
31.1145
 20
64.6133
 11
31.1944
 21
64.9116
  0
LINE
  8
0
 10
31.1944
 20
64.9116
 11
31.305
 21
65.1999
  0
LINE
  8
0
 10
31.305
 20
65.1999
 11
31.4452
 21
65.475
  0
LINE
  8
0
 10
31.4452
 20
65.475
 11
31.6134
 21
65.734
  0
LINE
  8
0
 10
31.6134
 20
65.734
 11
31.8077
 21
65.9739
  0
LINE
  8
0
 10
31.8077
 20
65.9739
 11
32.0261
 21
66.1923
  0
LINE
  8
0
 10
32.0261
 20
66.1923
 11
32.266
 21
66.3866
  0
LINE
  8
0
 10
32.266
 20
66.3866
 11
32.525
 21
66.5548
  0
LINE
  8
0
 10
32.525
 20
66.5548
 11
32.8001
 21
66.6949
  0
LINE
  8
0
 10
32.8001
 20
66.6949
 11
33.0884
 21
66.8056
  0
LINE
  8
0
 10
33.0884
 20
66.8056
 11
33.3867
 21
66.8855
  0
LINE
  8
0
 10
33.3867
 20
66.8855
 11
33.6916
 21
66.9338
  0
LINE
  8
0
 10
33.6916
 20
66.9338
 11
34
 21
66.95
  0
LINE
  8
0
 10
34
 20
66.95
 11
34.3083
 21
66.9338
  0
LINE
  8
0
 10
34.3083
 20
66.9338
 11
34.6133
 21
66.8855
  0
LINE
  8
0
 10
34.6133
 20
66.8855
 11
34.9116
 21
66.8056
  0
LINE
  8
0
 10
34.9116
 20
66.8056
 11
35.1999
 21
66.6949
  0
LINE
  8
0
 10
35.1999
 20
66.6949
 11
35.475
 21
66.5548
  0
LINE
  8
0
 10
35.475
 20
66.5548
 11
35.734
 21
66.3866
  0
LINE
  8
0
 10
35.734
 20
66.3866
 11
35.9739
 21
66.1923
  0
LINE
  8
0
 10
35.9739
 20
66.1923
 11
36.1923
 21
65.9739
  0
LINE
  8
0
 10
36.1923
 20
65.9739
 11
36.3866
 21
65.734
  0
LINE
  8
0
 10
36.3866
 20
65.734
 11
36.5548
 21
65.475
  0
LINE
  8
0
 10
36.5548
 20
65.475
 11
36.6949
 21
65.1999
  0
LINE
  8
0
 10
36.6949
 20
65.1999
 11
36.8056
 21
64.9116
  0
LINE
  8
0
 10
36.8056
 20
64.9116
 11
36.8855
 21
64.6133
  0
LINE
  8
0
 10
36.8855
 20
64.6133
 11
36.9338
 21
64.3083
  0
LINE
  8
0
 10
36.9338
 20
64.3083
 11
36.95
 21
64
  0
LINE
  8
0
 10
36.95
 20
64
 11
36.9338
 21
63.6916
  0
LINE
  8
0
 10
36.9338
 20
63.6916
 11
36.8855
 21
63.3867
  0
LINE
  8
0
 10
36.8855
 20
63.3867
 11
36.8056
 21
63.0884
  0
LINE
  8
0
 10
36.8056
 20
63.0884
 11
36.6949
 21
62.8001
  0
LINE
  8
0
 10
36.6949
 20
62.8001
 11
36.5548
 21
62.525
  0
LINE
  8
0
 10
36.5548
 20
62.525
 11
36.3866
 21
62.266
  0
LINE
  8
0
 10
36.3866
 20
62.266
 11
36.1923
 21
62.0261
  0
LINE
  8
0
 10
36.1923
 20
62.0261
 11
35.9739
 21
61.8077
  0
LINE
  8
0
 10
35.9739
 20
61.8077
 11
35.734
 21
61.6134
  0
LINE
  8
0
 10
35.734
 20
61.6134
 11
35.475
 21
61.4452
  0
LINE
  8
0
 10
35.475
 20
61.4452
 11
35.1999
 21
61.305
  0
LINE
  8
0
 10
35.1999
 20
61.305
 11
34.9116
 21
61.1944
  0
LINE
  8
0
 10
34.9116
 20
61.1944
 11
34.6133
 21
61.1145
  0
LINE
  8
0
 10
34.6133
 20
61.1145
 11
34.3083
 21
61.0661
  0
LINE
  8
0
 10
34.3083
 20
61.0661
 11
34
 21
61.05
  0
LINE
  8
0
 10
34
 20
61.05
 11
33.6916
 21
61.0661
  0
LINE
  8
0
 10
15.6916
 20
61.0661
 11
15.3867
 21
61.1145
  0
LINE
  8
0
 10
15.3867
 20
61.1145
 11
15.0884
 21
61.1944
  0
LINE
  8
0
 10
15.0884
 20
61.1944
 11
14.8001
 21
61.305
  0
LINE
  8
0
 10
14.8001
 20
61.305
 11
14.525
 21
61.4452
  0
LINE
  8
0
 10
14.525
 20
61.4452
 11
14.266
 21
61.6134
  0
LINE
  8
0
 10
14.266
 20
61.6134
 11
14.0261
 21
61.8077
  0
LINE
  8
0
 10
14.0261
 20
61.8077
 11
13.8077
 21
62.0261
  0
LINE
  8
0
 10
13.8077
 20
62.0261
 11
13.6134
 21
62.266
  0
LINE
  8
0
 10
13.6134
 20
62.266
 11
13.4452
 21
62.525
  0
LINE
  8
0
 10
13.4452
 20
62.525
 11
13.305
 21
62.8001
  0
LINE
  8
0
 10
13.305
 20
62.8001
 11
13.1944
 21
63.0884
  0
LINE
  8
0
 10
13.1944
 20
63.0884
 11
13.1145
 21
63.3867
  0
LINE
  8
0
 10
13.1145
 20
63.3867
 11
13.0661
 21
63.6916
  0
LINE
  8
0
 10
13.0661
 20
63.6916
 11
13.05
 21
64
  0
LINE
  8
0
 10
13.05
 20
64
 11
13.0661
 21
64.3083
  0
LINE
  8
0
 10
13.0661
 20
64.3083
 11
13.1145
 21
64.6133
  0
LINE
  8
0
 10
13.1145
 20
64.6133
 11
13.1944
 21
64.9116
  0
LINE
  8
0
 10
13.1944
 20
64.9116
 11
13.305
 21
65.1999
  0
LINE
  8
0
 10
13.305
 20
65.1999
 11
13.4452
 21
65.475
  0
LINE
  8
0
 10
13.4452
 20
65.475
 11
13.6134
 21
65.734
  0
LINE
  8
0
 10
13.6134
 20
65.734
 11
13.8077
 21
65.9739
  0
LINE
  8
0
 10
13.8077
 20
65.9739
 11
14.0261
 21
66.1923
  0
LINE
  8
0
 10
14.0261
 20
66.1923
 11
14.266
 21
66.3866
  0
LINE
  8
0
 10
14.266
 20
66.3866
 11
14.525
 21
66.5548
  0
LINE
  8
0
 10
14.525
 20
66.5548
 11
14.8001
 21
66.6949
  0
LINE
  8
0
 10
14.8001
 20
66.6949
 11
15.0884
 21
66.8056
  0
LINE
  8
0
 10
15.0884
 20
66.8056
 11
15.3867
 21
66.8855
  0
LINE
  8
0
 10
15.3867
 20
66.8855
 11
15.6916
 21
66.9338
  0
LINE
  8
0
 10
15.6916
 20
66.9338
 11
16
 21
66.95
  0
LINE
  8
0
 10
16
 20
66.95
 11
16.3083
 21
66.9338
  0
LINE
  8
0
 10
16.3083
 20
66.9338
 11
16.6133
 21
66.8855
  0
LINE
  8
0
 10
16.6133
 20
66.8855
 11
16.9116
 21
66.8056
  0
LINE
  8
0
 10
16.9116
 20
66.8056
 11
17.1999
 21
66.6949
  0
LINE
  8
0
 10
17.1999
 20
66.6949
 11
17.475
 21
66.5548
  0
LINE
  8
0
 10
17.475
 20
66.5548
 11
17.734
 21
66.3866
  0
LINE
  8
0
 10
17.734
 20
66.3866
 11
17.9739
 21
66.1923
  0
LINE
  8
0
 10
17.9739
 20
66.1923
 11
18.1923
 21
65.9739
  0
LINE
  8
0
 10
18.1923
 20
65.9739
 11
18.3866
 21
65.734
  0
LINE
  8
0
 10
18.3866
 20
65.734
 11
18.5548
 21
65.475
  0
LINE
  8
0
 10
18.5548
 20
65.475
 11
18.6949
 21
65.1999
  0
LINE
  8
0
 10
18.6949
 20
65.1999
 11
18.8056
 21
64.9116
  0
LINE
  8
0
 10
18.8056
 20
64.9116
 11
18.8855
 21
64.6133
  0
LINE
  8
0
 10
18.8855
 20
64.6133
 11
18.9338
 21
64.3083
  0
LINE
  8
0
 10
18.9338
 20
64.3083
 11
18.95
 21
64
  0
LINE
  8
0
 10
18.95
 20
64
 11
18.9338
 21
63.6916
  0
LINE
  8
0
 10
18.9338
 20
63.6916
 11
18.8855
 21
63.3867
  0
LINE
  8
0
 10
18.8855
 20
63.3867
 11
18.8056
 21
63.0884
  0
LINE
  8
0
 10
18.8056
 20
63.0884
 11
18.6949
 21
62.8001
  0
LINE
  8
0
 10
18.6949
 20
62.8001
 11
18.5548
 21
62.525
  0
LINE
  8
0
 10
18.5548
 20
62.525
 11
18.3866
 21
62.266
  0
LINE
  8
0
 10
18.3866
 20
62.266
 11
18.1923
 21
62.0261
  0
LINE
  8
0
 10
18.1923
 20
62.0261
 11
17.9739
 21
61.8077
  0
LINE
  8
0
 10
17.9739
 20
61.8077
 11
17.734
 21
61.6134
  0
LINE
  8
0
 10
17.734
 20
61.6134
 11
17.475
 21
61.4452
  0
LINE
  8
0
 10
17.475
 20
61.4452
 11
17.1999
 21
61.305
  0
LINE
  8
0
 10
17.1999
 20
61.305
 11
16.9116
 21
61.1944
  0
LINE
  8
0
 10
16.9116
 20
61.1944
 11
16.6133
 21
61.1145
  0
LINE
  8
0
 10
16.6133
 20
61.1145
 11
16.3083
 21
61.0661
  0
LINE
  8
0
 10
16.3083
 20
61.0661
 11
16
 21
61.05
  0
LINE
  8
0
 10
16
 20
61.05
 11
15.6916
 21
61.0661
  0
LINE
  8
0
 10
243.634
 20
40.5192
 11
243.272
 21
40.5765
  0
LINE
  8
0
 10
243.272
 20
40.5765
 11
242.918
 21
40.6713
  0
LINE
  8
0
 10
242.918
 20
40.6713
 11
242.576
 21
40.8026
  0
LINE
  8
0
 10
242.576
 20
40.8026
 11
242.25
 21
40.9689
  0
LINE
  8
0
 10
242.25
 20
40.9689
 11
241.943
 21
41.1684
  0
LINE
  8
0
 10
241.943
 20
41.1684
 11
241.658
 21
41.399
  0
LINE
  8
0
 10
241.658
 20
41.399
 11
241.399
 21
41.658
  0
LINE
  8
0
 10
241.399
 20
41.658
 11
241.168
 21
41.9427
  0
LINE
  8
0
 10
241.168
 20
41.9427
 11
240.969
 21
42.25
  0
LINE
  8
0
 10
240.969
 20
42.25
 11
240.803
 21
42.5764
  0
LINE
  8
0
 10
240.803
 20
42.5764
 11
240.671
 21
42.9184
  0
LINE
  8
0
 10
240.671
 20
42.9184
 11
240.576
 21
43.2723
  0
LINE
  8
0
 10
240.576
 20
43.2723
 11
240.519
 21
43.6341
  0
LINE
  8
0
 10
240.519
 20
43.6341
 11
240.5
 21
44
  0
LINE
  8
0
 10
240.5
 20
44
 11
240.519
 21
44.3658
  0
LINE
  8
0
 10
240.519
 20
44.3658
 11
240.576
 21
44.7277
  0
LINE
  8
0
 10
240.576
 20
44.7277
 11
240.671
 21
45.0816
  0
LINE
  8
0
 10
240.671
 20
45.0816
 11
240.803
 21
45.4236
  0
LINE
  8
0
 10
240.803
 20
45.4236
 11
240.969
 21
45.75
  0
LINE
  8
0
 10
240.969
 20
45.75
 11
241.168
 21
46.0572
  0
LINE
  8
0
 10
241.168
 20
46.0572
 11
241.399
 21
46.3419
  0
LINE
  8
0
 10
241.399
 20
46.3419
 11
241.658
 21
46.601
  0
LINE
  8
0
 10
241.658
 20
46.601
 11
241.943
 21
46.8316
  0
LINE
  8
0
 10
241.943
 20
46.8316
 11
242.25
 21
47.0311
  0
LINE
  8
0
 10
242.25
 20
47.0311
 11
242.576
 21
47.1974
  0
LINE
  8
0
 10
242.576
 20
47.1974
 11
242.918
 21
47.3287
  0
LINE
  8
0
 10
242.918
 20
47.3287
 11
243.272
 21
47.4235
  0
LINE
  8
0
 10
243.272
 20
47.4235
 11
243.634
 21
47.4808
  0
LINE
  8
0
 10
243.634
 20
47.4808
 11
244
 21
47.5
  0
LINE
  8
0
 10
244
 20
47.5
 11
244.366
 21
47.4808
  0
LINE
  8
0
 10
244.366
 20
47.4808
 11
244.728
 21
47.4235
  0
LINE
  8
0
 10
244.728
 20
47.4235
 11
245.082
 21
47.3287
  0
LINE
  8
0
 10
245.082
 20
47.3287
 11
245.424
 21
47.1974
  0
LINE
  8
0
 10
245.424
 20
47.1974
 11
245.75
 21
47.0311
  0
LINE
  8
0
 10
245.75
 20
47.0311
 11
246.057
 21
46.8316
  0
LINE
  8
0
 10
246.057
 20
46.8316
 11
246.342
 21
46.601
  0
LINE
  8
0
 10
246.342
 20
46.601
 11
246.601
 21
46.3419
  0
LINE
  8
0
 10
246.601
 20
46.3419
 11
246.832
 21
46.0572
  0
LINE
  8
0
 10
246.832
 20
46.0572
 11
247.031
 21
45.75
  0
LINE
  8
0
 10
247.031
 20
45.75
 11
247.197
 21
45.4236
  0
LINE
  8
0
 10
247.197
 20
45.4236
 11
247.329
 21
45.0816
  0
LINE
  8
0
 10
247.329
 20
45.0816
 11
247.424
 21
44.7277
  0
LINE
  8
0
 10
247.424
 20
44.7277
 11
247.481
 21
44.3658
  0
LINE
  8
0
 10
247.481
 20
44.3658
 11
247.5
 21
44
  0
LINE
  8
0
 10
247.5
 20
44
 11
247.481
 21
43.6341
  0
LINE
  8
0
 10
247.481
 20
43.6341
 11
247.424
 21
43.2723
  0
LINE
  8
0
 10
247.424
 20
43.2723
 11
247.329
 21
42.9184
  0
LINE
  8
0
 10
247.329
 20
42.9184
 11
247.197
 21
42.5764
  0
LINE
  8
0
 10
247.197
 20
42.5764
 11
247.031
 21
42.25
  0
LINE
  8
0
 10
247.031
 20
42.25
 11
246.832
 21
41.9427
  0
LINE
  8
0
 10
246.832
 20
41.9427
 11
246.601
 21
41.658
  0
LINE
  8
0
 10
246.601
 20
41.658
 11
246.342
 21
41.399
  0
LINE
  8
0
 10
246.342
 20
41.399
 11
246.057
 21
41.1684
  0
LINE
  8
0
 10
246.057
 20
41.1684
 11
245.75
 21
40.9689
  0
LINE
  8
0
 10
245.75
 20
40.9689
 11
245.424
 21
40.8026
  0
LINE
  8
0
 10
245.424
 20
40.8026
 11
245.082
 21
40.6713
  0
LINE
  8
0
 10
245.082
 20
40.6713
 11
244.728
 21
40.5765
  0
LINE
  8
0
 10
244.728
 20
40.5765
 11
244.366
 21
40.5192
  0
LINE
  8
0
 10
244.366
 20
40.5192
 11
244
 21
40.5
  0
LINE
  8
0
 10
244
 20
40.5
 11
243.634
 21
40.5192
  0
LINE
  8
0
 10
225.634
 20
40.5192
 11
225.272
 21
40.5765
  0
LINE
  8
0
 10
225.272
 20
40.5765
 11
224.918
 21
40.6713
  0
LINE
  8
0
 10
224.918
 20
40.6713
 11
224.576
 21
40.8026
  0
LINE
  8
0
 10
224.576
 20
40.8026
 11
224.25
 21
40.9689
  0
LINE
  8
0
 10
224.25
 20
40.9689
 11
223.943
 21
41.1684
  0
LINE
  8
0
 10
223.943
 20
41.1684
 11
223.658
 21
41.399
  0
LINE
  8
0
 10
223.658
 20
41.399
 11
223.399
 21
41.658
  0
LINE
  8
0
 10
223.399
 20
41.658
 11
223.168
 21
41.9427
  0
LINE
  8
0
 10
223.168
 20
41.9427
 11
222.969
 21
42.25
  0
LINE
  8
0
 10
222.969
 20
42.25
 11
222.803
 21
42.5764
  0
LINE
  8
0
 10
222.803
 20
42.5764
 11
222.671
 21
42.9184
  0
LINE
  8
0
 10
222.671
 20
42.9184
 11
222.576
 21
43.2723
  0
LINE
  8
0
 10
222.576
 20
43.2723
 11
222.519
 21
43.6341
  0
LINE
  8
0
 10
222.519
 20
43.6341
 11
222.5
 21
44
  0
LINE
  8
0
 10
222.5
 20
44
 11
222.519
 21
44.3658
  0
LINE
  8
0
 10
222.519
 20
44.3658
 11
222.576
 21
44.7277
  0
LINE
  8
0
 10
222.576
 20
44.7277
 11
222.671
 21
45.0816
  0
LINE
  8
0
 10
222.671
 20
45.0816
 11
222.803
 21
45.4236
  0
LINE
  8
0
 10
222.803
 20
45.4236
 11
222.969
 21
45.75
  0
LINE
  8
0
 10
222.969
 20
45.75
 11
223.168
 21
46.0572
  0
LINE
  8
0
 10
223.168
 20
46.0572
 11
223.399
 21
46.3419
  0
LINE
  8
0
 10
223.399
 20
46.3419
 11
223.658
 21
46.601
  0
LINE
  8
0
 10
223.658
 20
46.601
 11
223.943
 21
46.8316
  0
LINE
  8
0
 10
223.943
 20
46.8316
 11
224.25
 21
47.0311
  0
LINE
  8
0
 10
224.25
 20
47.0311
 11
224.576
 21
47.1974
  0
LINE
  8
0
 10
224.576
 20
47.1974
 11
224.918
 21
47.3287
  0
LINE
  8
0
 10
224.918
 20
47.3287
 11
225.272
 21
47.4235
  0
LINE
  8
0
 10
225.272
 20
47.4235
 11
225.634
 21
47.4808
  0
LINE
  8
0
 10
225.634
 20
47.4808
 11
226
 21
47.5
  0
LINE
  8
0
 10
226
 20
47.5
 11
226.366
 21
47.4808
  0
LINE
  8
0
 10
226.366
 20
47.4808
 11
226.728
 21
47.4235
  0
LINE
  8
0
 10
226.728
 20
47.4235
 11
227.082
 21
47.3287
  0
LINE
  8
0
 10
227.082
 20
47.3287
 11
227.424
 21
47.1974
  0
LINE
  8
0
 10
227.424
 20
47.1974
 11
227.75
 21
47.0311
  0
LINE
  8
0
 10
227.75
 20
47.0311
 11
228.057
 21
46.8316
  0
LINE
  8
0
 10
228.057
 20
46.8316
 11
228.342
 21
46.601
  0
LINE
  8
0
 10
228.342
 20
46.601
 11
228.601
 21
46.3419
  0
LINE
  8
0
 10
228.601
 20
46.3419
 11
228.832
 21
46.0572
  0
LINE
  8
0
 10
228.832
 20
46.0572
 11
229.031
 21
45.75
  0
LINE
  8
0
 10
229.031
 20
45.75
 11
229.197
 21
45.4236
  0
LINE
  8
0
 10
229.197
 20
45.4236
 11
229.329
 21
45.0816
  0
LINE
  8
0
 10
229.329
 20
45.0816
 11
229.424
 21
44.7277
  0
LINE
  8
0
 10
229.424
 20
44.7277
 11
229.481
 21
44.3658
  0
LINE
  8
0
 10
229.481
 20
44.3658
 11
229.5
 21
44
  0
LINE
  8
0
 10
229.5
 20
44
 11
229.481
 21
43.6341
  0
LINE
  8
0
 10
229.481
 20
43.6341
 11
229.424
 21
43.2723
  0
LINE
  8
0
 10
229.424
 20
43.2723
 11
229.329
 21
42.9184
  0
LINE
  8
0
 10
229.329
 20
42.9184
 11
229.197
 21
42.5764
  0
LINE
  8
0
 10
229.197
 20
42.5764
 11
229.031
 21
42.25
  0
LINE
  8
0
 10
229.031
 20
42.25
 11
228.832
 21
41.9427
  0
LINE
  8
0
 10
228.832
 20
41.9427
 11
228.601
 21
41.658
  0
LINE
  8
0
 10
228.601
 20
41.658
 11
228.342
 21
41.399
  0
LINE
  8
0
 10
228.342
 20
41.399
 11
228.057
 21
41.1684
  0
LINE
  8
0
 10
228.057
 20
41.1684
 11
227.75
 21
40.9689
  0
LINE
  8
0
 10
227.75
 20
40.9689
 11
227.424
 21
40.8026
  0
LINE
  8
0
 10
227.424
 20
40.8026
 11
227.082
 21
40.6713
  0
LINE
  8
0
 10
227.082
 20
40.6713
 11
226.728
 21
40.5765
  0
LINE
  8
0
 10
226.728
 20
40.5765
 11
226.366
 21
40.5192
  0
LINE
  8
0
 10
226.366
 20
40.5192
 11
226
 21
40.5
  0
LINE
  8
0
 10
226
 20
40.5
 11
225.634
 21
40.5192
  0
LINE
  8
0
 10
33.6916
 20
41.0661
 11
33.3867
 21
41.1145
  0
LINE
  8
0
 10
33.3867
 20
41.1145
 11
33.0884
 21
41.1944
  0
LINE
  8
0
 10
33.0884
 20
41.1944
 11
32.8001
 21
41.305
  0
LINE
  8
0
 10
32.8001
 20
41.305
 11
32.525
 21
41.4452
  0
LINE
  8
0
 10
32.525
 20
41.4452
 11
32.266
 21
41.6134
  0
LINE
  8
0
 10
32.266
 20
41.6134
 11
32.0261
 21
41.8077
  0
LINE
  8
0
 10
32.0261
 20
41.8077
 11
31.8077
 21
42.0261
  0
LINE
  8
0
 10
31.8077
 20
42.0261
 11
31.6134
 21
42.266
  0
LINE
  8
0
 10
31.6134
 20
42.266
 11
31.4452
 21
42.525
  0
LINE
  8
0
 10
31.4452
 20
42.525
 11
31.305
 21
42.8001
  0
LINE
  8
0
 10
31.305
 20
42.8001
 11
31.1944
 21
43.0884
  0
LINE
  8
0
 10
31.1944
 20
43.0884
 11
31.1145
 21
43.3867
  0
LINE
  8
0
 10
31.1145
 20
43.3867
 11
31.0661
 21
43.6916
  0
LINE
  8
0
 10
31.0661
 20
43.6916
 11
31.05
 21
44
  0
LINE
  8
0
 10
31.05
 20
44
 11
31.0661
 21
44.3083
  0
LINE
  8
0
 10
31.0661
 20
44.3083
 11
31.1145
 21
44.6133
  0
LINE
  8
0
 10
31.1145
 20
44.6133
 11
31.1944
 21
44.9116
  0
LINE
  8
0
 10
31.1944
 20
44.9116
 11
31.305
 21
45.1999
  0
LINE
  8
0
 10
31.305
 20
45.1999
 11
31.4452
 21
45.475
  0
LINE
  8
0
 10
31.4452
 20
45.475
 11
31.6134
 21
45.734
  0
LINE
  8
0
 10
31.6134
 20
45.734
 11
31.8077
 21
45.9739
  0
LINE
  8
0
 10
31.8077
 20
45.9739
 11
32.0261
 21
46.1923
  0
LINE
  8
0
 10
32.0261
 20
46.1923
 11
32.266
 21
46.3866
  0
LINE
  8
0
 10
32.266
 20
46.3866
 11
32.525
 21
46.5548
  0
LINE
  8
0
 10
32.525
 20
46.5548
 11
32.8001
 21
46.6949
  0
LINE
  8
0
 10
32.8001
 20
46.6949
 11
33.0884
 21
46.8056
  0
LINE
  8
0
 10
33.0884
 20
46.8056
 11
33.3867
 21
46.8855
  0
LINE
  8
0
 10
33.3867
 20
46.8855
 11
33.6916
 21
46.9338
  0
LINE
  8
0
 10
33.6916
 20
46.9338
 11
34
 21
46.95
  0
LINE
  8
0
 10
34
 20
46.95
 11
34.3083
 21
46.9338
  0
LINE
  8
0
 10
34.3083
 20
46.9338
 11
34.6133
 21
46.8855
  0
LINE
  8
0
 10
34.6133
 20
46.8855
 11
34.9116
 21
46.8056
  0
LINE
  8
0
 10
34.9116
 20
46.8056
 11
35.1999
 21
46.6949
  0
LINE
  8
0
 10
35.1999
 20
46.6949
 11
35.475
 21
46.5548
  0
LINE
  8
0
 10
35.475
 20
46.5548
 11
35.734
 21
46.3866
  0
LINE
  8
0
 10
35.734
 20
46.3866
 11
35.9739
 21
46.1923
  0
LINE
  8
0
 10
35.9739
 20
46.1923
 11
36.1923
 21
45.9739
  0
LINE
  8
0
 10
36.1923
 20
45.9739
 11
36.3866
 21
45.734
  0
LINE
  8
0
 10
36.3866
 20
45.734
 11
36.5548
 21
45.475
  0
LINE
  8
0
 10
36.5548
 20
45.475
 11
36.6949
 21
45.1999
  0
LINE
  8
0
 10
36.6949
 20
45.1999
 11
36.8056
 21
44.9116
  0
LINE
  8
0
 10
36.8056
 20
44.9116
 11
36.8855
 21
44.6133
  0
LINE
  8
0
 10
36.8855
 20
44.6133
 11
36.9338
 21
44.3083
  0
LINE
  8
0
 10
36.9338
 20
44.3083
 11
36.95
 21
44
  0
LINE
  8
0
 10
36.95
 20
44
 11
36.9338
 21
43.6916
  0
LINE
  8
0
 10
36.9338
 20
43.6916
 11
36.8855
 21
43.3867
  0
LINE
  8
0
 10
36.8855
 20
43.3867
 11
36.8056
 21
43.0884
  0
LINE
  8
0
 10
36.8056
 20
43.0884
 11
36.6949
 21
42.8001
  0
LINE
  8
0
 10
36.6949
 20
42.8001
 11
36.5548
 21
42.525
  0
LINE
  8
0
 10
36.5548
 20
42.525
 11
36.3866
 21
42.266
  0
LINE
  8
0
 10
36.3866
 20
42.266
 11
36.1923
 21
42.0261
  0
LINE
  8
0
 10
36.1923
 20
42.0261
 11
35.9739
 21
41.8077
  0
LINE
  8
0
 10
35.9739
 20
41.8077
 11
35.734
 21
41.6134
  0
LINE
  8
0
 10
35.734
 20
41.6134
 11
35.475
 21
41.4452
  0
LINE
  8
0
 10
35.475
 20
41.4452
 11
35.1999
 21
41.305
  0
LINE
  8
0
 10
35.1999
 20
41.305
 11
34.9116
 21
41.1944
  0
LINE
  8
0
 10
34.9116
 20
41.1944
 11
34.6133
 21
41.1145
  0
LINE
  8
0
 10
34.6133
 20
41.1145
 11
34.3083
 21
41.0661
  0
LINE
  8
0
 10
34.3083
 20
41.0661
 11
34
 21
41.05
  0
LINE
  8
0
 10
34
 20
41.05
 11
33.6916
 21
41.0661
  0
LINE
  8
0
 10
15.6916
 20
41.0661
 11
15.3867
 21
41.1145
  0
LINE
  8
0
 10
15.3867
 20
41.1145
 11
15.0884
 21
41.1944
  0
LINE
  8
0
 10
15.0884
 20
41.1944
 11
14.8001
 21
41.305
  0
LINE
  8
0
 10
14.8001
 20
41.305
 11
14.525
 21
41.4452
  0
LINE
  8
0
 10
14.525
 20
41.4452
 11
14.266
 21
41.6134
  0
LINE
  8
0
 10
14.266
 20
41.6134
 11
14.0261
 21
41.8077
  0
LINE
  8
0
 10
14.0261
 20
41.8077
 11
13.8077
 21
42.0261
  0
LINE
  8
0
 10
13.8077
 20
42.0261
 11
13.6134
 21
42.266
  0
LINE
  8
0
 10
13.6134
 20
42.266
 11
13.4452
 21
42.525
  0
LINE
  8
0
 10
13.4452
 20
42.525
 11
13.305
 21
42.8001
  0
LINE
  8
0
 10
13.305
 20
42.8001
 11
13.1944
 21
43.0884
  0
LINE
  8
0
 10
13.1944
 20
43.0884
 11
13.1145
 21
43.3867
  0
LINE
  8
0
 10
13.1145
 20
43.3867
 11
13.0661
 21
43.6916
  0
LINE
  8
0
 10
13.0661
 20
43.6916
 11
13.05
 21
44
  0
LINE
  8
0
 10
13.05
 20
44
 11
13.0661
 21
44.3083
  0
LINE
  8
0
 10
13.0661
 20
44.3083
 11
13.1145
 21
44.6133
  0
LINE
  8
0
 10
13.1145
 20
44.6133
 11
13.1944
 21
44.9116
  0
LINE
  8
0
 10
13.1944
 20
44.9116
 11
13.305
 21
45.1999
  0
LINE
  8
0
 10
13.305
 20
45.1999
 11
13.4452
 21
45.475
  0
LINE
  8
0
 10
13.4452
 20
45.475
 11
13.6134
 21
45.734
  0
LINE
  8
0
 10
13.6134
 20
45.734
 11
13.8077
 21
45.9739
  0
LINE
  8
0
 10
13.8077
 20
45.9739
 11
14.0261
 21
46.1923
  0
LINE
  8
0
 10
14.0261
 20
46.1923
 11
14.266
 21
46.3866
  0
LINE
  8
0
 10
14.266
 20
46.3866
 11
14.525
 21
46.5548
  0
LINE
  8
0
 10
14.525
 20
46.5548
 11
14.8001
 21
46.6949
  0
LINE
  8
0
 10
14.8001
 20
46.6949
 11
15.0884
 21
46.8056
  0
LINE
  8
0
 10
15.0884
 20
46.8056
 11
15.3867
 21
46.8855
  0
LINE
  8
0
 10
15.3867
 20
46.8855
 11
15.6916
 21
46.9338
  0
LINE
  8
0
 10
15.6916
 20
46.9338
 11
16
 21
46.95
  0
LINE
  8
0
 10
16
 20
46.95
 11
16.3083
 21
46.9338
  0
LINE
  8
0
 10
16.3083
 20
46.9338
 11
16.6133
 21
46.8855
  0
LINE
  8
0
 10
16.6133
 20
46.8855
 11
16.9116
 21
46.8056
  0
LINE
  8
0
 10
16.9116
 20
46.8056
 11
17.1999
 21
46.6949
  0
LINE
  8
0
 10
17.1999
 20
46.6949
 11
17.475
 21
46.5548
  0
LINE
  8
0
 10
17.475
 20
46.5548
 11
17.734
 21
46.3866
  0
LINE
  8
0
 10
17.734
 20
46.3866
 11
17.9739
 21
46.1923
  0
LINE
  8
0
 10
17.9739
 20
46.1923
 11
18.1923
 21
45.9739
  0
LINE
  8
0
 10
18.1923
 20
45.9739
 11
18.3866
 21
45.734
  0
LINE
  8
0
 10
18.3866
 20
45.734
 11
18.5548
 21
45.475
  0
LINE
  8
0
 10
18.5548
 20
45.475
 11
18.6949
 21
45.1999
  0
LINE
  8
0
 10
18.6949
 20
45.1999
 11
18.8056
 21
44.9116
  0
LINE
  8
0
 10
18.8056
 20
44.9116
 11
18.8855
 21
44.6133
  0
LINE
  8
0
 10
18.8855
 20
44.6133
 11
18.9338
 21
44.3083
  0
LINE
  8
0
 10
18.9338
 20
44.3083
 11
18.95
 21
44
  0
LINE
  8
0
 10
18.95
 20
44
 11
18.9338
 21
43.6916
  0
LINE
  8
0
 10
18.9338
 20
43.6916
 11
18.8855
 21
43.3867
  0
LINE
  8
0
 10
18.8855
 20
43.3867
 11
18.8056
 21
43.0884
  0
LINE
  8
0
 10
18.8056
 20
43.0884
 11
18.6949
 21
42.8001
  0
LINE
  8
0
 10
18.6949
 20
42.8001
 11
18.5548
 21
42.525
  0
LINE
  8
0
 10
18.5548
 20
42.525
 11
18.3866
 21
42.266
  0
LINE
  8
0
 10
18.3866
 20
42.266
 11
18.1923
 21
42.0261
  0
LINE
  8
0
 10
18.1923
 20
42.0261
 11
17.9739
 21
41.8077
  0
LINE
  8
0
 10
17.9739
 20
41.8077
 11
17.734
 21
41.6134
  0
LINE
  8
0
 10
17.734
 20
41.6134
 11
17.475
 21
41.4452
  0
LINE
  8
0
 10
17.475
 20
41.4452
 11
17.1999
 21
41.305
  0
LINE
  8
0
 10
17.1999
 20
41.305
 11
16.9116
 21
41.1944
  0
LINE
  8
0
 10
16.9116
 20
41.1944
 11
16.6133
 21
41.1145
  0
LINE
  8
0
 10
16.6133
 20
41.1145
 11
16.3083
 21
41.0661
  0
LINE
  8
0
 10
16.3083
 20
41.0661
 11
16
 21
41.05
  0
LINE
  8
0
 10
16
 20
41.05
 11
15.6916
 21
41.0661
  0
LINE
  8
0
 10
243.634
 20
20.5192
 11
243.272
 21
20.5765
  0
LINE
  8
0
 10
243.272
 20
20.5765
 11
242.918
 21
20.6713
  0
LINE
  8
0
 10
242.918
 20
20.6713
 11
242.576
 21
20.8026
  0
LINE
  8
0
 10
242.576
 20
20.8026
 11
242.25
 21
20.9689
  0
LINE
  8
0
 10
242.25
 20
20.9689
 11
241.943
 21
21.1684
  0
LINE
  8
0
 10
241.943
 20
21.1684
 11
241.658
 21
21.399
  0
LINE
  8
0
 10
241.658
 20
21.399
 11
241.399
 21
21.658
  0
LINE
  8
0
 10
241.399
 20
21.658
 11
241.168
 21
21.9427
  0
LINE
  8
0
 10
241.168
 20
21.9427
 11
240.969
 21
22.25
  0
LINE
  8
0
 10
240.969
 20
22.25
 11
240.803
 21
22.5764
  0
LINE
  8
0
 10
240.803
 20
22.5764
 11
240.671
 21
22.9184
  0
LINE
  8
0
 10
240.671
 20
22.9184
 11
240.576
 21
23.2723
  0
LINE
  8
0
 10
240.576
 20
23.2723
 11
240.519
 21
23.6341
  0
LINE
  8
0
 10
240.519
 20
23.6341
 11
240.5
 21
24
  0
LINE
  8
0
 10
240.5
 20
24
 11
240.519
 21
24.3658
  0
LINE
  8
0
 10
240.519
 20
24.3658
 11
240.576
 21
24.7277
  0
LINE
  8
0
 10
240.576
 20
24.7277
 11
240.671
 21
25.0816
  0
LINE
  8
0
 10
240.671
 20
25.0816
 11
240.803
 21
25.4236
  0
LINE
  8
0
 10
240.803
 20
25.4236
 11
240.969
 21
25.75
  0
LINE
  8
0
 10
240.969
 20
25.75
 11
241.168
 21
26.0572
  0
LINE
  8
0
 10
241.168
 20
26.0572
 11
241.399
 21
26.3419
  0
LINE
  8
0
 10
241.399
 20
26.3419
 11
241.658
 21
26.601
  0
LINE
  8
0
 10
241.658
 20
26.601
 11
241.943
 21
26.8316
  0
LINE
  8
0
 10
241.943
 20
26.8316
 11
242.25
 21
27.0311
  0
LINE
  8
0
 10
242.25
 20
27.0311
 11
242.576
 21
27.1974
  0
LINE
  8
0
 10
242.576
 20
27.1974
 11
242.918
 21
27.3287
  0
LINE
  8
0
 10
242.918
 20
27.3287
 11
243.272
 21
27.4235
  0
LINE
  8
0
 10
243.272
 20
27.4235
 11
243.634
 21
27.4808
  0
LINE
  8
0
 10
243.634
 20
27.4808
 11
244
 21
27.5
  0
LINE
  8
0
 10
244
 20
27.5
 11
244.366
 21
27.4808
  0
LINE
  8
0
 10
244.366
 20
27.4808
 11
244.728
 21
27.4235
  0
LINE
  8
0
 10
244.728
 20
27.4235
 11
245.082
 21
27.3287
  0
LINE
  8
0
 10
245.082
 20
27.3287
 11
245.424
 21
27.1974
  0
LINE
  8
0
 10
245.424
 20
27.1974
 11
245.75
 21
27.0311
  0
LINE
  8
0
 10
245.75
 20
27.0311
 11
246.057
 21
26.8316
  0
LINE
  8
0
 10
246.057
 20
26.8316
 11
246.342
 21
26.601
  0
LINE
  8
0
 10
246.342
 20
26.601
 11
246.601
 21
26.3419
  0
LINE
  8
0
 10
246.601
 20
26.3419
 11
246.832
 21
26.0572
  0
LINE
  8
0
 10
246.832
 20
26.0572
 11
247.031
 21
25.75
  0
LINE
  8
0
 10
247.031
 20
25.75
 11
247.197
 21
25.4236
  0
LINE
  8
0
 10
247.197
 20
25.4236
 11
247.329
 21
25.0816
  0
LINE
  8
0
 10
247.329
 20
25.0816
 11
247.424
 21
24.7277
  0
LINE
  8
0
 10
247.424
 20
24.7277
 11
247.481
 21
24.3658
  0
LINE
  8
0
 10
247.481
 20
24.3658
 11
247.5
 21
24
  0
LINE
  8
0
 10
247.5
 20
24
 11
247.481
 21
23.6341
  0
LINE
  8
0
 10
247.481
 20
23.6341
 11
247.424
 21
23.2723
  0
LINE
  8
0
 10
247.424
 20
23.2723
 11
247.329
 21
22.9184
  0
LINE
  8
0
 10
247.329
 20
22.9184
 11
247.197
 21
22.5764
  0
LINE
  8
0
 10
247.197
 20
22.5764
 11
247.031
 21
22.25
  0
LINE
  8
0
 10
247.031
 20
22.25
 11
246.832
 21
21.9427
  0
LINE
  8
0
 10
246.832
 20
21.9427
 11
246.601
 21
21.658
  0
LINE
  8
0
 10
246.601
 20
21.658
 11
246.342
 21
21.399
  0
LINE
  8
0
 10
246.342
 20
21.399
 11
246.057
 21
21.1684
  0
LINE
  8
0
 10
246.057
 20
21.1684
 11
245.75
 21
20.9689
  0
LINE
  8
0
 10
245.75
 20
20.9689
 11
245.424
 21
20.8026
  0
LINE
  8
0
 10
245.424
 20
20.8026
 11
245.082
 21
20.6713
  0
LINE
  8
0
 10
245.082
 20
20.6713
 11
244.728
 21
20.5765
  0
LINE
  8
0
 10
244.728
 20
20.5765
 11
244.366
 21
20.5192
  0
LINE
  8
0
 10
244.366
 20
20.5192
 11
244
 21
20.5
  0
LINE
  8
0
 10
244
 20
20.5
 11
243.634
 21
20.5192
  0
LINE
  8
0
 10
15.6916
 20
21.0661
 11
15.3867
 21
21.1145
  0
LINE
  8
0
 10
15.3867
 20
21.1145
 11
15.0884
 21
21.1944
  0
LINE
  8
0
 10
15.0884
 20
21.1944
 11
14.8001
 21
21.305
  0
LINE
  8
0
 10
14.8001
 20
21.305
 11
14.525
 21
21.4452
  0
LINE
  8
0
 10
14.525
 20
21.4452
 11
14.266
 21
21.6134
  0
LINE
  8
0
 10
14.266
 20
21.6134
 11
14.0261
 21
21.8077
  0
LINE
  8
0
 10
14.0261
 20
21.8077
 11
13.8077
 21
22.0261
  0
LINE
  8
0
 10
13.8077
 20
22.0261
 11
13.6134
 21
22.266
  0
LINE
  8
0
 10
13.6134
 20
22.266
 11
13.4452
 21
22.525
  0
LINE
  8
0
 10
13.4452
 20
22.525
 11
13.305
 21
22.8001
  0
LINE
  8
0
 10
13.305
 20
22.8001
 11
13.1944
 21
23.0884
  0
LINE
  8
0
 10
13.1944
 20
23.0884
 11
13.1145
 21
23.3867
  0
LINE
  8
0
 10
13.1145
 20
23.3867
 11
13.0661
 21
23.6916
  0
LINE
  8
0
 10
13.0661
 20
23.6916
 11
13.05
 21
24
  0
LINE
  8
0
 10
13.05
 20
24
 11
13.0661
 21
24.3083
  0
LINE
  8
0
 10
13.0661
 20
24.3083
 11
13.1145
 21
24.6133
  0
LINE
  8
0
 10
13.1145
 20
24.6133
 11
13.1944
 21
24.9116
  0
LINE
  8
0
 10
13.1944
 20
24.9116
 11
13.305
 21
25.1999
  0
LINE
  8
0
 10
13.305
 20
25.1999
 11
13.4452
 21
25.475
  0
LINE
  8
0
 10
13.4452
 20
25.475
 11
13.6134
 21
25.734
  0
LINE
  8
0
 10
13.6134
 20
25.734
 11
13.8077
 21
25.9739
  0
LINE
  8
0
 10
13.8077
 20
25.9739
 11
14.0261
 21
26.1923
  0
LINE
  8
0
 10
14.0261
 20
26.1923
 11
14.266
 21
26.3866
  0
LINE
  8
0
 10
14.266
 20
26.3866
 11
14.525
 21
26.5548
  0
LINE
  8
0
 10
14.525
 20
26.5548
 11
14.8001
 21
26.6949
  0
LINE
  8
0
 10
14.8001
 20
26.6949
 11
15.0884
 21
26.8056
  0
LINE
  8
0
 10
15.0884
 20
26.8056
 11
15.3867
 21
26.8855
  0
LINE
  8
0
 10
15.3867
 20
26.8855
 11
15.6916
 21
26.9338
  0
LINE
  8
0
 10
15.6916
 20
26.9338
 11
16
 21
26.95
  0
LINE
  8
0
 10
16
 20
26.95
 11
16.3083
 21
26.9338
  0
LINE
  8
0
 10
16.3083
 20
26.9338
 11
16.6133
 21
26.8855
  0
LINE
  8
0
 10
16.6133
 20
26.8855
 11
16.9116
 21
26.8056
  0
LINE
  8
0
 10
16.9116
 20
26.8056
 11
17.1999
 21
26.6949
  0
LINE
  8
0
 10
17.1999
 20
26.6949
 11
17.475
 21
26.5548
  0
LINE
  8
0
 10
17.475
 20
26.5548
 11
17.734
 21
26.3866
  0
LINE
  8
0
 10
17.734
 20
26.3866
 11
17.9739
 21
26.1923
  0
LINE
  8
0
 10
17.9739
 20
26.1923
 11
18.1923
 21
25.9739
  0
LINE
  8
0
 10
18.1923
 20
25.9739
 11
18.3866
 21
25.734
  0
LINE
  8
0
 10
18.3866
 20
25.734
 11
18.5548
 21
25.475
  0
LINE
  8
0
 10
18.5548
 20
25.475
 11
18.6949
 21
25.1999
  0
LINE
  8
0
 10
18.6949
 20
25.1999
 11
18.8056
 21
24.9116
  0
LINE
  8
0
 10
18.8056
 20
24.9116
 11
18.8855
 21
24.6133
  0
LINE
  8
0
 10
18.8855
 20
24.6133
 11
18.9338
 21
24.3083
  0
LINE
  8
0
 10
18.9338
 20
24.3083
 11
18.95
 21
24
  0
LINE
  8
0
 10
18.95
 20
24
 11
18.9338
 21
23.6916
  0
LINE
  8
0
 10
18.9338
 20
23.6916
 11
18.8855
 21
23.3867
  0
LINE
  8
0
 10
18.8855
 20
23.3867
 11
18.8056
 21
23.0884
  0
LINE
  8
0
 10
18.8056
 20
23.0884
 11
18.6949
 21
22.8001
  0
LINE
  8
0
 10
18.6949
 20
22.8001
 11
18.5548
 21
22.525
  0
LINE
  8
0
 10
18.5548
 20
22.525
 11
18.3866
 21
22.266
  0
LINE
  8
0
 10
18.3866
 20
22.266
 11
18.1923
 21
22.0261
  0
LINE
  8
0
 10
18.1923
 20
22.0261
 11
17.9739
 21
21.8077
  0
LINE
  8
0
 10
17.9739
 20
21.8077
 11
17.734
 21
21.6134
  0
LINE
  8
0
 10
17.734
 20
21.6134
 11
17.475
 21
21.4452
  0
LINE
  8
0
 10
17.475
 20
21.4452
 11
17.1999
 21
21.305
  0
LINE
  8
0
 10
17.1999
 20
21.305
 11
16.9116
 21
21.1944
  0
LINE
  8
0
 10
16.9116
 20
21.1944
 11
16.6133
 21
21.1145
  0
LINE
  8
0
 10
16.6133
 20
21.1145
 11
16.3083
 21
21.0661
  0
LINE
  8
0
 10
16.3083
 20
21.0661
 11
16
 21
21.05
  0
LINE
  8
0
 10
16
 20
21.05
 11
15.6916
 21
21.0661
  0
LINE
  8
0
 10
33.6916
 20
21.0661
 11
33.3867
 21
21.1145
  0
LINE
  8
0
 10
33.3867
 20
21.1145
 11
33.0884
 21
21.1944
  0
LINE
  8
0
 10
33.0884
 20
21.1944
 11
32.8001
 21
21.305
  0
LINE
  8
0
 10
32.8001
 20
21.305
 11
32.525
 21
21.4452
  0
LINE
  8
0
 10
32.525
 20
21.4452
 11
32.266
 21
21.6134
  0
LINE
  8
0
 10
32.266
 20
21.6134
 11
32.0261
 21
21.8077
  0
LINE
  8
0
 10
32.0261
 20
21.8077
 11
31.8077
 21
22.0261
  0
LINE
  8
0
 10
31.8077
 20
22.0261
 11
31.6134
 21
22.266
  0
LINE
  8
0
 10
31.6134
 20
22.266
 11
31.4452
 21
22.525
  0
LINE
  8
0
 10
31.4452
 20
22.525
 11
31.305
 21
22.8001
  0
LINE
  8
0
 10
31.305
 20
22.8001
 11
31.1944
 21
23.0884
  0
LINE
  8
0
 10
31.1944
 20
23.0884
 11
31.1145
 21
23.3867
  0
LINE
  8
0
 10
31.1145
 20
23.3867
 11
31.0661
 21
23.6916
  0
LINE
  8
0
 10
31.0661
 20
23.6916
 11
31.05
 21
24
  0
LINE
  8
0
 10
31.05
 20
24
 11
31.0661
 21
24.3083
  0
LINE
  8
0
 10
31.0661
 20
24.3083
 11
31.1145
 21
24.6133
  0
LINE
  8
0
 10
31.1145
 20
24.6133
 11
31.1944
 21
24.9116
  0
LINE
  8
0
 10
31.1944
 20
24.9116
 11
31.305
 21
25.1999
  0
LINE
  8
0
 10
31.305
 20
25.1999
 11
31.4452
 21
25.475
  0
LINE
  8
0
 10
31.4452
 20
25.475
 11
31.6134
 21
25.734
  0
LINE
  8
0
 10
31.6134
 20
25.734
 11
31.8077
 21
25.9739
  0
LINE
  8
0
 10
31.8077
 20
25.9739
 11
32.0261
 21
26.1923
  0
LINE
  8
0
 10
32.0261
 20
26.1923
 11
32.266
 21
26.3866
  0
LINE
  8
0
 10
32.266
 20
26.3866
 11
32.525
 21
26.5548
  0
LINE
  8
0
 10
32.525
 20
26.5548
 11
32.8001
 21
26.6949
  0
LINE
  8
0
 10
32.8001
 20
26.6949
 11
33.0884
 21
26.8056
  0
LINE
  8
0
 10
33.0884
 20
26.8056
 11
33.3867
 21
26.8855
  0
LINE
  8
0
 10
33.3867
 20
26.8855
 11
33.6916
 21
26.9338
  0
LINE
  8
0
 10
33.6916
 20
26.9338
 11
34
 21
26.95
  0
LINE
  8
0
 10
34
 20
26.95
 11
34.3083
 21
26.9338
  0
LINE
  8
0
 10
34.3083
 20
26.9338
 11
34.6133
 21
26.8855
  0
LINE
  8
0
 10
34.6133
 20
26.8855
 11
34.9116
 21
26.8056
  0
LINE
  8
0
 10
34.9116
 20
26.8056
 11
35.1999
 21
26.6949
  0
LINE
  8
0
 10
35.1999
 20
26.6949
 11
35.475
 21
26.5548
  0
LINE
  8
0
 10
35.475
 20
26.5548
 11
35.734
 21
26.3866
  0
LINE
  8
0
 10
35.734
 20
26.3866
 11
35.9739
 21
26.1923
  0
LINE
  8
0
 10
35.9739
 20
26.1923
 11
36.1923
 21
25.9739
  0
LINE
  8
0
 10
36.1923
 20
25.9739
 11
36.3866
 21
25.734
  0
LINE
  8
0
 10
36.3866
 20
25.734
 11
36.5548
 21
25.475
  0
LINE
  8
0
 10
36.5548
 20
25.475
 11
36.6949
 21
25.1999
  0
LINE
  8
0
 10
36.6949
 20
25.1999
 11
36.8056
 21
24.9116
  0
LINE
  8
0
 10
36.8056
 20
24.9116
 11
36.8855
 21
24.6133
  0
LINE
  8
0
 10
36.8855
 20
24.6133
 11
36.9338
 21
24.3083
  0
LINE
  8
0
 10
36.9338
 20
24.3083
 11
36.95
 21
24
  0
LINE
  8
0
 10
36.95
 20
24
 11
36.9338
 21
23.6916
  0
LINE
  8
0
 10
36.9338
 20
23.6916
 11
36.8855
 21
23.3867
  0
LINE
  8
0
 10
36.8855
 20
23.3867
 11
36.8056
 21
23.0884
  0
LINE
  8
0
 10
36.8056
 20
23.0884
 11
36.6949
 21
22.8001
  0
LINE
  8
0
 10
36.6949
 20
22.8001
 11
36.5548
 21
22.525
  0
LINE
  8
0
 10
36.5548
 20
22.525
 11
36.3866
 21
22.266
  0
LINE
  8
0
 10
36.3866
 20
22.266
 11
36.1923
 21
22.0261
  0
LINE
  8
0
 10
36.1923
 20
22.0261
 11
35.9739
 21
21.8077
  0
LINE
  8
0
 10
35.9739
 20
21.8077
 11
35.734
 21
21.6134
  0
LINE
  8
0
 10
35.734
 20
21.6134
 11
35.475
 21
21.4452
  0
LINE
  8
0
 10
35.475
 20
21.4452
 11
35.1999
 21
21.305
  0
LINE
  8
0
 10
35.1999
 20
21.305
 11
34.9116
 21
21.1944
  0
LINE
  8
0
 10
34.9116
 20
21.1944
 11
34.6133
 21
21.1145
  0
LINE
  8
0
 10
34.6133
 20
21.1145
 11
34.3083
 21
21.0661
  0
LINE
  8
0
 10
34.3083
 20
21.0661
 11
34
 21
21.05
  0
LINE
  8
0
 10
34
 20
21.05
 11
33.6916
 21
21.0661
  0
LINE
  8
0
 10
251.202
 20
1.5
 11
251.035
 21
1.50877
  0
LINE
  8
0
 10
251.035
 20
1.50877
 11
250.87
 21
1.53497
  0
LINE
  8
0
 10
250.87
 20
1.53497
 11
250.708
 21
1.57832
  0
LINE
  8
0
 10
250.708
 20
1.57832
 11
250.552
 21
1.63834
  0
LINE
  8
0
 10
250.552
 20
1.63834
 11
250.402
 21
1.71437
  0
LINE
  8
0
 10
250.402
 20
1.71437
 11
250.262
 21
1.80559
  0
LINE
  8
0
 10
250.262
 20
1.80559
 11
250.132
 21
1.91098
  0
LINE
  8
0
 10
250.132
 20
1.91098
 11
250.013
 21
2.0294
  0
LINE
  8
0
 10
250.013
 20
2.0294
 11
249.908
 21
2.15955
  0
LINE
  8
0
 10
249.908
 20
2.15955
 11
249.817
 21
2.3
  0
LINE
  8
0
 10
249.817
 20
2.3
 11
249.741
 21
2.44923
  0
LINE
  8
0
 10
249.741
 20
2.44923
 11
249.681
 21
2.60558
  0
LINE
  8
0
 10
249.681
 20
2.60558
 11
249.637
 21
2.76735
  0
LINE
  8
0
 10
249.637
 20
2.76735
 11
249.611
 21
2.93275
  0
LINE
  8
0
 10
249.611
 20
2.93275
 11
249.602
 21
3.10001
  0
LINE
  8
0
 10
249.602
 20
3.10001
 11
249.611
 21
3.26726
  0
LINE
  8
0
 10
249.611
 20
3.26726
 11
249.637
 21
3.43266
  0
LINE
  8
0
 10
249.637
 20
3.43266
 11
249.681
 21
3.59444
  0
LINE
  8
0
 10
249.681
 20
3.59444
 11
249.741
 21
3.75079
  0
LINE
  8
0
 10
249.741
 20
3.75079
 11
249.817
 21
3.90001
  0
LINE
  8
0
 10
249.817
 20
3.90001
 11
249.908
 21
4.04047
  0
LINE
  8
0
 10
249.908
 20
4.04047
 11
250.013
 21
4.17062
  0
LINE
  8
0
 10
250.013
 20
4.17062
 11
250.132
 21
4.28903
  0
LINE
  8
0
 10
250.132
 20
4.28903
 11
250.262
 21
4.39444
  0
LINE
  8
0
 10
250.262
 20
4.39444
 11
250.402
 21
4.48564
  0
LINE
  8
0
 10
250.402
 20
4.48564
 11
250.552
 21
4.56168
  0
LINE
  8
0
 10
250.552
 20
4.56168
 11
250.708
 21
4.6217
  0
LINE
  8
0
 10
250.708
 20
4.6217
 11
250.87
 21
4.66504
  0
LINE
  8
0
 10
250.87
 20
4.66504
 11
251.035
 21
4.69124
  0
LINE
  8
0
 10
251.035
 20
4.69124
 11
251.202
 21
4.70001
  0
LINE
  8
0
 10
251.202
 20
4.70001
 11
257.402
 21
4.70001
  0
LINE
  8
0
 10
257.402
 20
4.70001
 11
257.57
 21
4.69124
  0
LINE
  8
0
 10
257.57
 20
4.69124
 11
257.735
 21
4.66504
  0
LINE
  8
0
 10
257.735
 20
4.66504
 11
257.897
 21
4.6217
  0
LINE
  8
0
 10
257.897
 20
4.6217
 11
258.053
 21
4.56168
  0
LINE
  8
0
 10
258.053
 20
4.56168
 11
258.202
 21
4.48564
  0
LINE
  8
0
 10
258.202
 20
4.48564
 11
258.343
 21
4.39444
  0
LINE
  8
0
 10
258.343
 20
4.39444
 11
258.473
 21
4.28903
  0
LINE
  8
0
 10
258.473
 20
4.28903
 11
258.591
 21
4.17062
  0
LINE
  8
0
 10
258.591
 20
4.17062
 11
258.697
 21
4.04047
  0
LINE
  8
0
 10
258.697
 20
4.04047
 11
258.788
 21
3.90001
  0
LINE
  8
0
 10
258.788
 20
3.90001
 11
258.864
 21
3.75079
  0
LINE
  8
0
 10
258.864
 20
3.75079
 11
258.924
 21
3.59444
  0
LINE
  8
0
 10
258.924
 20
3.59444
 11
258.967
 21
3.43266
  0
LINE
  8
0
 10
258.967
 20
3.43266
 11
258.994
 21
3.26726
  0
LINE
  8
0
 10
258.994
 20
3.26726
 11
259.002
 21
3.10001
  0
LINE
  8
0
 10
259.002
 20
3.10001
 11
258.994
 21
2.93275
  0
LINE
  8
0
 10
258.994
 20
2.93275
 11
258.967
 21
2.76735
  0
LINE
  8
0
 10
258.967
 20
2.76735
 11
258.924
 21
2.60558
  0
LINE
  8
0
 10
258.924
 20
2.60558
 11
258.864
 21
2.44923
  0
LINE
  8
0
 10
258.864
 20
2.44923
 11
258.788
 21
2.3
  0
LINE
  8
0
 10
258.788
 20
2.3
 11
258.697
 21
2.15955
  0
LINE
  8
0
 10
258.697
 20
2.15955
 11
258.591
 21
2.0294
  0
LINE
  8
0
 10
258.591
 20
2.0294
 11
258.473
 21
1.91098
  0
LINE
  8
0
 10
258.473
 20
1.91098
 11
258.343
 21
1.80559
  0
LINE
  8
0
 10
258.343
 20
1.80559
 11
258.202
 21
1.71437
  0
LINE
  8
0
 10
258.202
 20
1.71437
 11
258.053
 21
1.63834
  0
LINE
  8
0
 10
258.053
 20
1.63834
 11
257.897
 21
1.57832
  0
LINE
  8
0
 10
257.897
 20
1.57832
 11
257.735
 21
1.53497
  0
LINE
  8
0
 10
257.735
 20
1.53497
 11
257.57
 21
1.50877
  0
LINE
  8
0
 10
257.57
 20
1.50877
 11
257.402
 21
1.5
  0
LINE
  8
0
 10
257.402
 20
1.5
 11
251.202
 21
1.5
  0
LINE
  8
0
 10
3.09999
 20
1.5
 11
2.93275
 21
1.50877
  0
LINE
  8
0
 10
2.93275
 20
1.50877
 11
2.76733
 21
1.53497
  0
LINE
  8
0
 10
2.76733
 20
1.53497
 11
2.60558
 21
1.57832
  0
LINE
  8
0
 10
2.60558
 20
1.57832
 11
2.44922
 21
1.63834
  0
LINE
  8
0
 10
2.44922
 20
1.63834
 11
2.3
 21
1.71437
  0
LINE
  8
0
 10
2.3
 20
1.71437
 11
2.15955
 21
1.80559
  0
LINE
  8
0
 10
2.15955
 20
1.80559
 11
2.02939
 21
1.91098
  0
LINE
  8
0
 10
2.02939
 20
1.91098
 11
1.91096
 21
2.0294
  0
LINE
  8
0
 10
1.91096
 20
2.0294
 11
1.80557
 21
2.15955
  0
LINE
  8
0
 10
1.80557
 20
2.15955
 11
1.71436
 21
2.3
  0
LINE
  8
0
 10
1.71436
 20
2.3
 11
1.63832
 21
2.44923
  0
LINE
  8
0
 10
1.63832
 20
2.44923
 11
1.57831
 21
2.60558
  0
LINE
  8
0
 10
1.57831
 20
2.60558
 11
1.53496
 21
2.76735
  0
LINE
  8
0
 10
1.53496
 20
2.76735
 11
1.50876
 21
2.93275
  0
LINE
  8
0
 10
1.50876
 20
2.93275
 11
1.5
 21
3.10001
  0
LINE
  8
0
 10
1.5
 20
3.10001
 11
1.50876
 21
3.26726
  0
LINE
  8
0
 10
1.50876
 20
3.26726
 11
1.53496
 21
3.43266
  0
LINE
  8
0
 10
1.53496
 20
3.43266
 11
1.57831
 21
3.59444
  0
LINE
  8
0
 10
1.57831
 20
3.59444
 11
1.63832
 21
3.75079
  0
LINE
  8
0
 10
1.63832
 20
3.75079
 11
1.71436
 21
3.90001
  0
LINE
  8
0
 10
1.71436
 20
3.90001
 11
1.80557
 21
4.04047
  0
LINE
  8
0
 10
1.80557
 20
4.04047
 11
1.91096
 21
4.17062
  0
LINE
  8
0
 10
1.91096
 20
4.17062
 11
2.02939
 21
4.28903
  0
LINE
  8
0
 10
2.02939
 20
4.28903
 11
2.15955
 21
4.39444
  0
LINE
  8
0
 10
2.15955
 20
4.39444
 11
2.3
 21
4.48564
  0
LINE
  8
0
 10
2.3
 20
4.48564
 11
2.44922
 21
4.56168
  0
LINE
  8
0
 10
2.44922
 20
4.56168
 11
2.60558
 21
4.6217
  0
LINE
  8
0
 10
2.60558
 20
4.6217
 11
2.76733
 21
4.66504
  0
LINE
  8
0
 10
2.76733
 20
4.66504
 11
2.93275
 21
4.69124
  0
LINE
  8
0
 10
2.93275
 20
4.69124
 11
3.09999
 21
4.70001
  0
LINE
  8
0
 10
3.09999
 20
4.70001
 11
9.3
 21
4.70001
  0
LINE
  8
0
 10
9.3
 20
4.70001
 11
9.46724
 21
4.69124
  0
LINE
  8
0
 10
9.46724
 20
4.69124
 11
9.63266
 21
4.66504
  0
LINE
  8
0
 10
9.63266
 20
4.66504
 11
9.79442
 21
4.6217
  0
LINE
  8
0
 10
9.79442
 20
4.6217
 11
9.95078
 21
4.56168
  0
LINE
  8
0
 10
9.95078
 20
4.56168
 11
10.1
 21
4.48564
  0
LINE
  8
0
 10
10.1
 20
4.48564
 11
10.2404
 21
4.39444
  0
LINE
  8
0
 10
10.2404
 20
4.39444
 11
10.3706
 21
4.28903
  0
LINE
  8
0
 10
10.3706
 20
4.28903
 11
10.489
 21
4.17062
  0
LINE
  8
0
 10
10.489
 20
4.17062
 11
10.5944
 21
4.04047
  0
LINE
  8
0
 10
10.5944
 20
4.04047
 11
10.6856
 21
3.90001
  0
LINE
  8
0
 10
10.6856
 20
3.90001
 11
10.7617
 21
3.75079
  0
LINE
  8
0
 10
10.7617
 20
3.75079
 11
10.8217
 21
3.59444
  0
LINE
  8
0
 10
10.8217
 20
3.59444
 11
10.865
 21
3.43266
  0
LINE
  8
0
 10
10.865
 20
3.43266
 11
10.8912
 21
3.26726
  0
LINE
  8
0
 10
10.8912
 20
3.26726
 11
10.9
 21
3.10001
  0
LINE
  8
0
 10
10.9
 20
3.10001
 11
10.8912
 21
2.93275
  0
LINE
  8
0
 10
10.8912
 20
2.93275
 11
10.865
 21
2.76735
  0
LINE
  8
0
 10
10.865
 20
2.76735
 11
10.8217
 21
2.60558
  0
LINE
  8
0
 10
10.8217
 20
2.60558
 11
10.7617
 21
2.44923
  0
LINE
  8
0
 10
10.7617
 20
2.44923
 11
10.6856
 21
2.3
  0
LINE
  8
0
 10
10.6856
 20
2.3
 11
10.5944
 21
2.15955
  0
LINE
  8
0
 10
10.5944
 20
2.15955
 11
10.489
 21
2.0294
  0
LINE
  8
0
 10
10.489
 20
2.0294
 11
10.3706
 21
1.91098
  0
LINE
  8
0
 10
10.3706
 20
1.91098
 11
10.2404
 21
1.80559
  0
LINE
  8
0
 10
10.2404
 20
1.80559
 11
10.1
 21
1.71437
  0
LINE
  8
0
 10
10.1
 20
1.71437
 11
9.95078
 21
1.63834
  0
LINE
  8
0
 10
9.95078
 20
1.63834
 11
9.79442
 21
1.57832
  0
LINE
  8
0
 10
9.79442
 20
1.57832
 11
9.63266
 21
1.53497
  0
LINE
  8
0
 10
9.63266
 20
1.53497
 11
9.46724
 21
1.50877
  0
LINE
  8
0
 10
9.46724
 20
1.50877
 11
9.3
 21
1.5
  0
LINE
  8
0
 10
9.3
 20
1.5
 11
3.09999
 21
1.5
  0
ENDSEC
  0
SECTION
  2
OBJECTS
  0
DICTIONARY
  0
ENDSEC
  0
EOF
